<?xml version="1.0" encoding="UTF-8"?>
<svg xmlns="http://www.w3.org/2000/svg" xmlns:xlink="http://www.w3.org/1999/xlink" width="127pt" height="100pt" viewBox="0 0 127 100" version="1.1">
<g id="surface1">
<path style=" stroke:none;fill-rule:nonzero;fill-opacity:1;" d="M 42.652344 55.160156 L 59.972656 55.160156 L 59.972656 35.167969 L 42.652344 55.160156 M 35.277344 31.945312 L 18.28125 31.945312 L 35.277344 52.257812 L 35.277344 31.945312 M 58.046875 31.945312 L 39.125 31.945312 L 39.125 53.546875 L 58.046875 31.945312 M 63.820312 55.160156 L 81.78125 55.160156 L 63.820312 35.167969 L 63.820312 55.160156 M 108.398438 31.945312 L 89.15625 31.945312 L 89.15625 52.902344 L 108.398438 31.945312 M 85.308594 31.945312 L 65.746094 31.945312 L 85.308594 53.222656 L 85.308594 31.945312 M 86.589844 1.957031 L 87.230469 1.957031 L 87.230469 22.269531 L 127 22.269531 L 127 31.945312 L 113.851562 31.945312 L 92.363281 55.160156 L 127 55.160156 L 127 60.640625 L 111.605469 60.640625 L 113.53125 93.851562 L 118.339844 93.851562 L 118.339844 99.976562 L 97.496094 99.976562 L 97.496094 93.851562 L 101.664062 93.851562 L 103.589844 60.640625 L 67.027344 60.640625 L 68.953125 93.851562 L 73.441406 93.851562 L 73.441406 99.976562 L 52.597656 99.976562 L 52.597656 93.851562 L 57.085938 93.851562 L 59.011719 60.640625 L 20.847656 60.640625 L 22.769531 93.851562 L 27.902344 93.851562 L 27.902344 99.976562 L 6.734375 99.976562 L 6.734375 93.851562 L 10.902344 93.851562 L 12.828125 60.640625 L 0 60.640625 L 0 55.160156 L 33.03125 55.160156 L 13.148438 31.945312 L 0 31.945312 L 0 22.269531 L 35.917969 22.269531 L 35.917969 6.472656 L 32.710938 6.792969 L 28.222656 6.148438 L 26.296875 4.214844 L 28.222656 2.28125 L 32.710938 1.636719 C 35.917969 1.636719 37.949219 2.28125 38.804688 3.570312 L 39.445312 3.570312 L 39.445312 22.269531 L 83.382812 22.269531 L 83.382812 5.183594 L 80.496094 5.503906 L 75.6875 4.859375 L 73.761719 2.925781 L 75.6875 0.992188 L 80.496094 0.0234375 L 86.589844 1.957031 "/>
</g>
</svg>
