<?xml version="1.0" encoding="UTF-8"?>
<svg xmlns="http://www.w3.org/2000/svg" xmlns:xlink="http://www.w3.org/1999/xlink" width="128pt" height="118pt" viewBox="0 0 128 118" version="1.1">
<g id="surface1">
<path style=" stroke:none;fill-rule:nonzero;fill-opacity:1;" d="M 40.535156 52.898438 L 58.429688 52.898438 L 58.429688 34.585938 L 40.535156 34.585938 L 40.535156 52.898438 M 15.546875 34.585938 L 15.546875 52.898438 L 34.117188 52.898438 L 34.117188 34.585938 L 15.546875 34.585938 M 127.984375 22.71875 L 124.269531 29.5 L 119.878906 26.789062 L 119.878906 118 L 101.984375 118 L 101.984375 83.753906 L 80.375 83.753906 L 80.375 118 L 48.300781 118 L 48.300781 83.753906 L 26.015625 83.753906 L 26.015625 118 L 8.796875 118 L 8.796875 35.941406 L 4.40625 38.65625 L 0.015625 32.210938 L 37.15625 8.476562 L 56.742188 21.363281 L 91.179688 0 L 127.984375 22.71875 M 94.558594 34.585938 L 94.558594 52.898438 L 112.789062 52.898438 L 112.789062 34.585938 L 94.558594 34.585938 M 87.804688 52.898438 L 87.804688 34.585938 L 69.570312 34.585938 L 69.570312 52.898438 L 87.804688 52.898438 "/>
</g>
</svg>
