<?xml version="1.0" encoding="UTF-8"?>
<svg xmlns="http://www.w3.org/2000/svg" xmlns:xlink="http://www.w3.org/1999/xlink" width="128pt" height="136pt" viewBox="0 0 128 136" version="1.1">
<g id="surface1">
<path style=" stroke:none;fill-rule:nonzero;fill-opacity:1;" d="M 88.785156 33.289062 L 128 33.289062 L 128 135.945312 L 0 135.945312 L 0 19.996094 L 5.917969 19.996094 L 5.917969 0.0546875 L 18.867188 0.0546875 L 18.867188 19.996094 L 53.273438 19.996094 L 53.273438 61.722656 L 88.785156 61.722656 L 88.785156 33.289062 M 96.183594 57.292969 L 96.183594 67.261719 L 121.339844 67.261719 L 121.339844 57.292969 L 96.183594 57.292969 M 121.339844 91.632812 L 96.183594 91.632812 L 96.183594 101.234375 L 121.339844 101.234375 L 121.339844 91.632812 M 121.339844 74.277344 L 96.183594 74.277344 L 96.183594 84.246094 L 121.339844 84.246094 L 121.339844 74.277344 M 73.988281 77.601562 L 73.988281 83.507812 L 82.128906 83.507812 L 82.128906 77.601562 L 73.988281 77.601562 M 71.027344 77.601562 L 63.261719 77.601562 L 63.261719 83.507812 L 71.027344 83.507812 L 71.027344 77.601562 M 71.027344 95.324219 L 63.261719 95.324219 L 63.261719 103.820312 L 71.027344 103.820312 L 71.027344 95.324219 M 82.128906 103.820312 L 82.128906 95.324219 L 73.988281 95.324219 L 73.988281 103.820312 L 82.128906 103.820312 M 71.027344 113.789062 L 63.261719 113.789062 L 63.261719 125.972656 L 71.027344 125.972656 L 71.027344 113.789062 M 82.128906 113.789062 L 73.988281 113.789062 L 73.988281 125.972656 L 82.128906 125.972656 L 82.128906 113.789062 M 121.339844 118.21875 L 121.339844 108.617188 L 96.183594 108.617188 L 96.183594 118.21875 L 121.339844 118.21875 M 23.304688 51.015625 L 31.445312 51.015625 L 31.445312 31.074219 L 23.304688 31.074219 L 23.304688 51.015625 M 8.878906 55.8125 L 8.878906 76.125 L 17.015625 76.125 L 17.015625 55.8125 L 8.878906 55.8125 M 17.015625 31.074219 L 8.878906 31.074219 L 8.878906 51.015625 L 17.015625 51.015625 L 17.015625 31.074219 M 37.734375 55.8125 L 37.734375 76.125 L 45.503906 76.125 L 45.503906 55.8125 L 37.734375 55.8125 M 45.503906 31.074219 L 37.734375 31.074219 L 37.734375 51.015625 L 45.503906 51.015625 L 45.503906 31.074219 M 23.304688 55.8125 L 23.304688 76.125 L 31.445312 76.125 L 31.445312 55.8125 L 23.304688 55.8125 M 52.53125 83.507812 L 60.671875 83.507812 L 60.671875 77.601562 L 52.53125 77.601562 L 52.53125 83.507812 M 52.53125 95.324219 L 52.53125 103.820312 L 60.671875 103.820312 L 60.671875 95.324219 L 52.53125 95.324219 M 31.445312 80.925781 L 23.304688 80.925781 L 23.304688 100.863281 L 31.445312 100.863281 L 31.445312 80.925781 M 37.734375 106.035156 L 37.734375 125.972656 L 45.503906 125.972656 L 45.503906 106.035156 L 37.734375 106.035156 M 37.734375 100.863281 L 45.503906 100.863281 L 45.503906 80.925781 L 37.734375 80.925781 L 37.734375 100.863281 M 8.878906 80.925781 L 8.878906 100.863281 L 17.015625 100.863281 L 17.015625 80.925781 L 8.878906 80.925781 M 8.878906 106.035156 L 8.878906 125.972656 L 17.015625 125.972656 L 17.015625 106.035156 L 8.878906 106.035156 M 60.671875 113.789062 L 52.53125 113.789062 L 52.53125 125.972656 L 60.671875 125.972656 L 60.671875 113.789062 M 31.445312 106.035156 L 23.304688 106.035156 L 23.304688 125.972656 L 31.445312 125.972656 L 31.445312 106.035156 "/>
</g>
</svg>
