<?xml version="1.0" encoding="UTF-8"?>
<svg xmlns="http://www.w3.org/2000/svg" xmlns:xlink="http://www.w3.org/1999/xlink" width="128pt" height="132pt" viewBox="0 0 128 132" version="1.1">
<g id="surface1">
<path style=" stroke:none;fill-rule:nonzero;fill-opacity:1;" d="M 98.214844 31.777344 L 109.5625 39.1875 C 114.289062 42.011719 120.4375 44.480469 128 46.597656 L 127.644531 78.347656 L 99.632812 78.347656 L 99.632812 56.121094 L 85.453125 56.121094 L 85.453125 78.347656 L 73.75 78.347656 C 80.371094 81.875 88.289062 85.050781 97.507812 87.875 L 97.507812 131.972656 L 58.859375 131.972656 L 58.859375 101.28125 L 39.003906 101.28125 L 39.003906 131.972656 L 0 131.972656 L 0 87.875 C 9.21875 85.050781 17.253906 81.523438 24.109375 77.289062 L 40.421875 67.058594 L 48.929688 61.0625 L 57.441406 67.765625 L 57.441406 46.597656 C 64.058594 44.480469 69.851562 42.011719 74.8125 39.1875 L 92.898438 27.191406 L 98.214844 31.777344 M 43.964844 8.496094 L 57.085938 13.785156 L 57.085938 36.71875 L 36.875 36.71875 L 36.875 20.84375 L 26.949219 20.84375 L 26.949219 36.71875 L 6.738281 36.71875 L 6.738281 13.785156 C 11.699219 12.375 15.957031 10.609375 19.5 8.496094 L 32.265625 0.0273438 L 36.167969 3.203125 L 43.964844 8.496094 "/>
</g>
</svg>
