<?xml version="1.0" encoding="UTF-8"?>
<svg xmlns="http://www.w3.org/2000/svg" xmlns:xlink="http://www.w3.org/1999/xlink" width="127pt" height="88pt" viewBox="0 0 127 88" version="1.1">
<g id="surface1">
<path style=" stroke:none;fill-rule:nonzero;fill:fill-opacity:1;" d="M 75.648438 61.566406 L 72.988281 62.90625 C 75.425781 63.796875 76.648438 65.359375 76.648438 67.589844 L 74.984375 70.933594 L 71.324219 72.609375 L 67.660156 70.933594 L 65.996094 67.589844 L 66.328125 66.585938 L 57.007812 71.9375 L 62.335938 79.96875 C 64.996094 81.753906 67.992188 82.644531 71.324219 82.644531 C 75.316406 82.644531 78.867188 81.085938 81.972656 77.960938 C 84.859375 75.0625 86.300781 71.605469 86.300781 67.589844 L 84.96875 61.566406 L 75.648438 61.566406 M 115.925781 1.003906 L 116.59375 0 L 118.257812 1.003906 L 118.257812 1.339844 L 118.589844 1.339844 L 120.917969 3.347656 L 125.578125 13.71875 C 126.46875 15.058594 126.46875 15.949219 125.578125 16.394531 L 125.578125 18.738281 L 124.246094 19.070312 L 123.25 18.402344 L 123.25 18.070312 L 110.601562 26.433594 L 94.621094 36.472656 L 94.621094 61.566406 L 90.296875 61.566406 L 90.960938 67.589844 C 90.960938 73.167969 89.1875 77.960938 85.636719 81.976562 C 81.640625 85.992188 76.871094 88 71.324219 88 C 66.882812 88 63 86.882812 59.671875 84.652344 C 56.34375 82.199219 53.902344 78.964844 52.347656 74.949219 L 32.042969 86.996094 L 0.0898438 86.996094 L 0.0898438 81.308594 C 0.976562 78.632812 2.753906 77.292969 5.414062 77.292969 C 7.632812 77.292969 9.410156 78.632812 10.742188 81.308594 L 11.074219 81.308594 L 24.722656 76.957031 L 32.378906 66.585938 L 28.050781 68.257812 C 26.496094 68.929688 25.054688 68.371094 23.722656 66.585938 L 22.390625 63.574219 C 20.617188 63.796875 19.285156 63.015625 18.398438 61.230469 C 17.289062 59.671875 17.398438 57.996094 18.730469 56.214844 L 17.398438 53.203125 L 17.066406 50.523438 L 18.730469 48.851562 C 34.261719 40.152344 53.902344 30.449219 77.648438 19.742188 L 115.59375 3.011719 L 115.59375 2.675781 L 115.925781 1.003906 "/>
</g>
</svg>
