<?xml version="1.0" encoding="UTF-8"?>
<svg xmlns="http://www.w3.org/2000/svg" xmlns:xlink="http://www.w3.org/1999/xlink" width="127pt" height="76pt" viewBox="0 0 127 76" version="1.1">
<g id="surface1">
<path style=" stroke:none;fill-rule:nonzero;fill-opacity:1;" d="M 23.75 50.882812 C 25.460938 49.164062 26.3125 47.125 26.3125 44.761719 C 26.3125 42.402344 25.460938 40.363281 23.75 38.644531 C 22.039062 36.925781 20.007812 36.066406 17.660156 36.066406 C 15.09375 36.066406 12.957031 36.925781 11.246094 38.644531 C 9.539062 40.363281 8.683594 42.402344 8.683594 44.761719 C 8.683594 47.125 9.539062 49.164062 11.246094 50.882812 C 12.957031 52.8125 15.09375 53.78125 17.660156 53.78125 C 20.007812 53.78125 22.039062 52.8125 23.75 50.882812 M 118.957031 44.761719 C 118.957031 42.402344 118.105469 40.363281 116.394531 38.644531 C 114.683594 36.925781 112.652344 36.066406 110.304688 36.066406 C 107.738281 36.066406 105.707031 36.925781 104.210938 38.644531 C 102.289062 40.363281 101.328125 42.402344 101.328125 44.761719 C 101.328125 47.125 102.289062 49.164062 104.210938 50.882812 C 105.707031 52.8125 107.738281 53.78125 110.304688 53.78125 C 112.652344 53.78125 114.683594 52.8125 116.394531 50.882812 C 118.105469 49.164062 118.957031 47.125 118.957031 44.761719 M 104.53125 11.59375 C 107.523438 14.382812 109.984375 19.214844 111.90625 26.085938 L 112.226562 26.085938 C 115.644531 26.085938 118.53125 27.265625 120.882812 29.628906 C 123.234375 31.988281 124.40625 34.886719 124.40625 38.320312 L 126.972656 60.21875 L 125.691406 62.796875 L 123.445312 63.761719 L 119.597656 63.761719 L 118.636719 64.085938 L 112.867188 64.085938 L 112.867188 74.390625 L 110.945312 76 L 97.480469 76 L 95.878906 74.390625 L 95.878906 64.085938 L 31.121094 64.085938 L 31.121094 74.390625 C 31.121094 75.464844 30.480469 76 29.199219 76 L 16.054688 76 L 14.132812 74.390625 L 14.132812 64.085938 L 8.363281 64.085938 L 7.402344 63.761719 L 3.554688 63.761719 L 1.308594 62.796875 L 0.0273438 60.21875 L 2.59375 38.320312 C 2.59375 34.886719 3.765625 31.988281 6.117188 29.628906 C 8.46875 27.265625 11.355469 26.085938 14.773438 26.085938 L 15.09375 26.085938 C 17.015625 19.644531 19.367188 15.027344 22.148438 12.238281 C 30.269531 4.078125 44.050781 0 63.5 0 C 82.949219 0 96.625 3.863281 104.53125 11.59375 M 65.101562 7.40625 L 70.230469 7.40625 L 72.476562 9.339844 C 72.476562 10.84375 71.726562 11.59375 70.230469 11.59375 L 56.769531 11.59375 C 55.273438 11.59375 54.523438 10.84375 54.523438 9.339844 L 56.769531 7.40625 L 61.257812 7.40625 L 61.257812 5.152344 C 46.511719 5.367188 35.398438 8.910156 27.917969 15.78125 C 23.855469 19.214844 21.398438 23.1875 20.542969 27.695312 L 22.148438 28.984375 C 34.113281 25.117188 45.761719 22.863281 57.089844 22.21875 L 69.910156 22.21875 C 81.238281 22.863281 92.777344 25.117188 104.53125 28.984375 L 106.457031 27.695312 C 105.601562 23.402344 102.929688 19.429688 98.441406 15.78125 C 90.75 9.125 79.636719 5.582031 65.101562 5.152344 L 65.101562 7.40625 M 86.902344 37.355469 L 63.5 36.390625 L 40.097656 37.355469 C 33.6875 38.429688 30.480469 40.363281 30.480469 43.152344 C 30.480469 45.945312 33.6875 48.414062 40.097656 50.558594 L 63.5 53.78125 L 86.902344 50.558594 C 93.3125 48.414062 96.519531 45.945312 96.519531 43.152344 C 96.519531 40.363281 93.3125 38.429688 86.902344 37.355469 "/>
</g>
</svg>
