<?xml version="1.0" encoding="UTF-8"?>
<svg xmlns="http://www.w3.org/2000/svg" xmlns:xlink="http://www.w3.org/1999/xlink" width="128pt" height="89pt" viewBox="0 0 128 89" version="1.1">
<g id="surface1">
<path style=" stroke:none;fill-rule:nonzero;fill-opacity:1;" d="M 40.421875 66.261719 C 38.914062 67.777344 38.160156 69.621094 38.160156 71.785156 C 38.160156 73.949219 38.914062 75.789062 40.421875 77.304688 C 41.929688 78.824219 43.757812 79.582031 45.914062 79.582031 C 48.066406 79.582031 50.003906 78.824219 51.726562 77.304688 C 53.234375 75.789062 53.988281 73.949219 53.988281 71.785156 C 53.988281 69.621094 53.234375 67.777344 51.726562 66.261719 C 50.003906 64.53125 48.066406 63.664062 45.914062 63.664062 C 43.757812 63.664062 41.929688 64.53125 40.421875 66.261719 M 33.640625 59.441406 C 37.082031 56.195312 41.175781 54.570312 45.914062 54.570312 C 50.648438 54.570312 54.742188 56.195312 58.1875 59.441406 C 61.632812 62.90625 63.355469 67.019531 63.355469 71.785156 C 63.355469 76.546875 61.632812 80.664062 58.1875 84.128906 C 54.742188 87.375 50.648438 89 45.914062 89 C 41.175781 89 37.082031 87.375 33.640625 84.128906 C 30.410156 80.664062 28.792969 76.546875 28.792969 71.785156 C 28.792969 67.019531 30.410156 62.90625 33.640625 59.441406 M 18.136719 14.617188 L 14.582031 15.917969 L 13.289062 19.488281 L 13.289062 30.859375 L 14.582031 34.429688 L 18.136719 35.730469 L 57.863281 35.730469 L 57.863281 14.617188 L 18.136719 14.617188 M 99.851562 4.222656 C 102.652344 7.253906 104.050781 10.828125 104.050781 14.941406 L 104.050781 58.792969 L 127.953125 58.792969 L 127.953125 68.210938 L 68.199219 68.210938 C 67.335938 62.582031 64.859375 58.035156 60.769531 54.570312 C 56.464844 50.671875 51.511719 48.722656 45.914062 48.722656 C 40.3125 48.722656 35.46875 50.671875 31.378906 54.570312 C 27.070312 58.035156 24.488281 62.582031 23.625 68.210938 L 0.046875 68.210938 L 0.046875 14.941406 C 0.046875 10.828125 1.445312 7.253906 4.246094 4.222656 C 7.261719 1.40625 10.8125 0 14.90625 0 L 89.515625 0 C 93.609375 0 97.054688 1.40625 99.851562 4.222656 M 87.902344 14.617188 L 70.136719 14.617188 L 70.136719 35.730469 L 87.902344 35.730469 L 91.453125 34.429688 L 92.746094 30.859375 L 92.746094 19.488281 L 91.453125 15.917969 L 87.902344 14.617188 "/>
</g>
</svg>
