<?xml version="1.0" encoding="UTF-8"?>
<svg xmlns="http://www.w3.org/2000/svg" xmlns:xlink="http://www.w3.org/1999/xlink" width="128pt" height="128pt" viewBox="0 0 128 128" version="1.1">
<g id="surface1">
<path style=" stroke:none;fill-rule:nonzero;fill-opacity:1;" d="M 86.808594 53.445312 C 91.121094 41.644531 95.207031 35.746094 99.0625 35.746094 C 103.375 35.746094 109.503906 51.175781 117.445312 82.042969 L 128 128 L 83.0625 128 C 82.15625 118.921875 80.113281 111.546875 76.9375 105.871094 C 73.53125 99.972656 69.789062 97.019531 65.703125 97.019531 C 61.617188 97.019531 57.984375 99.972656 54.808594 105.871094 C 51.632812 111.546875 49.476562 118.921875 48.339844 128 L 0 128 L 10.210938 92.253906 C 17.929688 68.425781 24.738281 56.511719 30.636719 56.511719 C 32.90625 56.511719 35.746094 59.800781 39.148438 66.382812 C 49.363281 22.128906 58.210938 0 65.703125 0 C 70.921875 0 77.957031 17.816406 86.808594 53.445312 "/>
</g>
</svg>
