<?xml version="1.0" encoding="UTF-8"?>
<svg xmlns="http://www.w3.org/2000/svg" xmlns:xlink="http://www.w3.org/1999/xlink" width="128pt" height="163pt" viewBox="0 0 128 163" version="1.1">
<g id="surface1">
<path style=" stroke:none;fill-rule:nonzero;fill-opacity:1;" d="M 89.417969 59.316406 L 89.417969 44.378906 L 36.3125 44.378906 L 36.3125 59.316406 L 89.417969 59.316406 M 94.867188 12.6875 C 103.035156 21.140625 107.121094 31.25 107.121094 43.019531 L 107.121094 124.960938 L 128 124.960938 L 128 162.988281 L 0 162.988281 L 0 124.960938 L 20.878906 124.960938 L 20.878906 43.019531 C 20.878906 31.25 25.117188 21.140625 33.589844 12.6875 C 42.0625 4.238281 52.199219 0.0117188 64 0.0117188 C 76.105469 0.0117188 86.390625 4.238281 94.867188 12.6875 M 73.53125 80.59375 L 73.53125 66.109375 L 52.652344 66.109375 L 52.652344 80.59375 L 73.53125 80.59375 "/>
</g>
</svg>
