<?xml version="1.0" encoding="UTF-8"?>
<svg xmlns="http://www.w3.org/2000/svg" xmlns:xlink="http://www.w3.org/1999/xlink" width="128pt" height="137pt" viewBox="0 0 128 137" version="1.1">
<g id="surface1">
<path style=" stroke:none;fill-rule:nonzero;fill-opacity:1;" d="M 29.230469 123.855469 L 29.230469 103.441406 L 17.757812 103.441406 L 17.757812 123.855469 L 29.230469 123.855469 M 55.308594 103.441406 L 43.835938 103.441406 L 43.835938 123.855469 L 55.308594 123.855469 L 55.308594 103.441406 M 107.808594 123.855469 L 107.808594 103.441406 L 95.988281 103.441406 L 95.988281 123.855469 L 107.808594 123.855469 M 81.730469 103.441406 L 69.910156 103.441406 L 69.910156 123.855469 L 81.730469 123.855469 L 81.730469 103.441406 M 75.472656 38.746094 L 88.335938 0.347656 L 92.160156 0 L 105.027344 38.402344 L 105.027344 74.726562 L 110.589844 74.726562 L 127.972656 94.101562 L 122.0625 94.101562 L 122.0625 137 L 4.894531 137 L 4.894531 94.101562 L 0.0273438 94.101562 L 17.757812 75.074219 L 75.472656 75.074219 L 75.472656 38.746094 M 84.511719 42.554688 L 84.511719 65.386719 L 94.597656 65.386719 L 94.597656 42.554688 L 84.511719 42.554688 "/>
</g>
</svg>
