<?xml version="1.0" encoding="UTF-8"?>
<svg xmlns="http://www.w3.org/2000/svg" xmlns:xlink="http://www.w3.org/1999/xlink" width="128pt" height="126pt" viewBox="0 0 128 126" version="1.1">
<g id="surface1">
<path style=" stroke:none;fill-rule:nonzero;fill-opacity:1;" d="M 87.644531 19.84375 L 94.921875 15.875 L 99.550781 8.269531 L 104.84375 4.960938 L 104.84375 74.410156 L 113.773438 74.410156 L 111.125 83.339844 L 104.84375 83.339844 L 104.84375 92.597656 L 121.378906 92.597656 L 127.992188 90.945312 L 127.992188 126 L 0.0078125 126 L 0.0078125 88.628906 L 3.976562 85.984375 L 3.976562 45.636719 L 0.0078125 42.992188 L 0.0078125 14.882812 L 5.960938 14.882812 L 5.960938 0 L 18.859375 7.277344 L 18.859375 14.882812 L 26.796875 14.882812 L 24.8125 20.835938 L 26.132812 25.132812 L 23.15625 25.132812 L 23.15625 44.644531 L 37.707031 44.644531 L 31.425781 48.945312 L 23.15625 48.945312 L 23.15625 68.457031 L 31.425781 68.457031 L 35.394531 66.472656 L 37.707031 68.457031 L 37.707031 92.597656 L 45.644531 92.597656 L 45.644531 86.644531 L 52.589844 86.644531 L 52.589844 98.21875 L 58.542969 98.21875 L 58.542969 83.667969 L 55.898438 83.667969 L 56.558594 80.363281 L 58.542969 80.363281 L 58.542969 65.480469 L 57.882812 65.480469 L 58.542969 60.519531 L 58.542969 36.378906 L 63.835938 36.378906 L 63.835938 54.898438 L 69.457031 54.898438 L 69.457031 65.480469 L 63.835938 65.480469 L 63.835938 80.363281 L 69.457031 80.363281 L 69.457031 83.667969 L 63.835938 83.667969 L 63.835938 98.21875 L 69.789062 98.21875 L 69.789062 78.707031 L 75.410156 78.707031 L 75.410156 98.21875 L 82.023438 98.21875 L 82.023438 83.667969 L 78.386719 83.667969 L 79.378906 80.363281 L 82.023438 80.363281 L 82.023438 74.738281 L 85 70.441406 L 80.371094 54.898438 L 87.644531 54.898438 L 87.644531 19.84375 M 104.84375 99.542969 L 104.84375 109.132812 L 121.378906 109.132812 L 121.378906 99.542969 L 104.84375 99.542969 M 75.410156 101.859375 L 75.410156 116.410156 L 82.023438 116.410156 L 82.023438 101.859375 L 75.410156 101.859375 M 69.789062 101.859375 L 63.835938 101.859375 L 63.835938 116.410156 L 69.789062 116.410156 L 69.789062 101.859375 M 17.203125 44.644531 L 17.203125 25.132812 L 9.269531 25.132812 L 9.269531 44.644531 L 17.203125 44.644531 M 9.269531 97.226562 L 9.269531 116.410156 L 17.203125 116.410156 L 17.203125 97.226562 L 9.269531 97.226562 M 23.15625 97.226562 L 23.15625 116.410156 L 31.425781 116.410156 L 31.425781 97.226562 L 23.15625 97.226562 "/>
</g>
</svg>
