<?xml version="1.0" encoding="UTF-8"?>
<svg xmlns="http://www.w3.org/2000/svg" xmlns:xlink="http://www.w3.org/1999/xlink" width="128pt" height="121pt" viewBox="0 0 128 121" version="1.1">
<g id="surface1">
<path style=" stroke:none;fill-rule:nonzero;fill-opacity:1;" d="M 115.332031 9.332031 L 104.332031 24 L 119.332031 34 L 115 41 L 99 30.667969 L 94.667969 36.332031 L 99.332031 53.332031 L 105 48 L 120 61.667969 L 116.332031 77.332031 L 108 77.332031 L 108 94.332031 L 116.332031 94.332031 L 116.332031 87.332031 L 128 87.332031 L 128 121 L 117.332031 121 L 117.332031 104.667969 L 108.667969 104.667969 L 108.667969 121 L 66 121 L 66 97.332031 L 57.332031 97.332031 L 57.332031 121 L 32.667969 121 L 32.667969 99.332031 L 18.667969 99.332031 L 18.667969 121 L 7 121 L 7 88.667969 L 0 88.667969 L 11.667969 78 L 20 85.332031 L 29.332031 80.332031 L 26.667969 65 L 38.667969 54.332031 L 38.667969 44.332031 L 31.667969 44.332031 L 44.332031 27.332031 L 43 10 L 22.667969 15.667969 L 22 9.332031 L 48.332031 0 L 49.667969 20 L 61.667969 4 L 70.332031 15.667969 L 63.332031 22.332031 L 65.332031 33.332031 L 79 48.332031 L 84.332031 50 L 84.332031 67 L 92.332031 59.667969 L 85.667969 34.667969 L 92 26 L 87 22.667969 L 91.332031 15.667969 L 97.332031 19.332031 L 109 4.332031 L 115.332031 9.332031 M 64.332031 53.332031 L 64.332031 82.667969 L 73 82.667969 L 73 53.332031 L 64.332031 53.332031 M 100 77.332031 L 91.332031 77.332031 L 91.332031 94.332031 L 100 94.332031 L 100 77.332031 M 48 53.332031 L 48 82.667969 L 56.667969 82.667969 L 56.667969 53.332031 L 48 53.332031 "/>
</g>
</svg>
