<?xml version="1.0" encoding="UTF-8"?>
<svg xmlns="http://www.w3.org/2000/svg" xmlns:xlink="http://www.w3.org/1999/xlink" width="127pt" height="119pt" viewBox="0 0 127 119" version="1.1">
<g id="surface1">
<path style=" stroke:none;fill-rule:nonzero;fill-opacity:1;" d="M 80.15625 11.046875 C 81.414062 16.097656 81.203125 21.253906 79.527344 26.515625 L 73.871094 41.664062 C 71.777344 46.714844 70.832031 49.558594 71.042969 50.1875 L 78.898438 41.980469 C 84.765625 34.828125 90.003906 29.988281 94.613281 27.460938 C 101.320312 23.671875 106.660156 22.09375 110.640625 22.726562 C 115.042969 23.570312 117.242188 27.144531 117.242188 33.457031 L 118.183594 47.03125 L 122.898438 55.871094 C 125.625 59.65625 125.9375 63.339844 123.84375 66.917969 C 121.539062 70.707031 117.453125 72.808594 111.585938 73.230469 C 103.832031 74.074219 94.929688 72.703125 84.871094 69.128906 L 71.671875 65.023438 C 70.414062 65.867188 76.59375 71.652344 90.214844 82.382812 C 94.824219 85.960938 98.070312 89.644531 99.957031 93.433594 C 102.261719 98.691406 101.109375 102.796875 96.5 105.742188 C 92.519531 108.269531 88.746094 109.214844 85.183594 108.582031 C 80.785156 107.953125 77.539062 107.953125 75.441406 108.582031 C 69.785156 111.53125 65.699219 113.738281 63.1875 115.210938 L 51.558594 116.160156 C 45.691406 113.003906 43.28125 107.003906 44.328125 98.167969 C 44.957031 91.433594 46.949219 84.910156 50.300781 78.597656 C 52.1875 74.808594 53.128906 71.863281 53.128906 69.757812 L 52.5 67.234375 L 38.671875 82.070312 C 29.453125 94.484375 24.949219 106.792969 25.15625 119 L 13.527344 113.949219 L 17.300781 102.585938 C 20.441406 94.167969 23.796875 87.960938 27.359375 83.960938 L 42.441406 70.390625 L 51.242188 64.078125 L 44.015625 63.761719 C 38.566406 64.390625 32.386719 67.757812 25.472656 73.863281 C 18.558594 80.386719 12.691406 82.382812 7.871094 79.859375 C 4.519531 78.175781 2.214844 75.125 0.957031 70.707031 C 0.328125 68.390625 0.539062 65.234375 1.585938 61.234375 L 3.785156 51.136719 L 4.414062 38.824219 C 5.042969 33.5625 6.824219 30.09375 9.757812 28.410156 L 22.015625 27.144531 C 26.414062 28.410156 30.082031 30.933594 33.015625 34.722656 C 39.507812 42.296875 45.691406 46.925781 51.558594 48.609375 C 46.320312 39.5625 41.1875 32.617188 36.15625 27.777344 C 31.339844 23.148438 28.71875 18.832031 28.300781 14.835938 C 27.882812 11.046875 29.242188 7.890625 32.386719 5.367188 L 42.128906 3.789062 L 52.1875 4.734375 L 61.613281 0.632812 L 72.300781 0 C 76.28125 2.105469 78.898438 5.785156 80.15625 11.046875 "/>
</g>
</svg>
