<?xml version="1.0" encoding="UTF-8"?>
<svg xmlns="http://www.w3.org/2000/svg" xmlns:xlink="http://www.w3.org/1999/xlink" width="127pt" height="127pt" viewBox="0 0 127 127" version="1.1">
<g id="surface1">
<path style=" stroke:none;fill-rule:nonzero;fill-opacity:1;" d="M 35.441406 98.777344 L 32.890625 89.796875 C 31.828125 86.164062 30.445312 83.597656 28.746094 82.101562 L 30.339844 93.644531 L 32.574219 100.382812 L 34.484375 100.382812 L 35.441406 98.777344 M 52.660156 61.253906 L 52.660156 59.011719 L 53.933594 57.085938 L 56.804688 57.085938 C 58.078125 57.085938 58.71875 57.726562 58.71875 59.011719 L 58.71875 61.253906 C 58.71875 62.539062 58.078125 63.179688 56.804688 63.179688 L 53.933594 63.179688 C 53.085938 63.179688 52.660156 62.539062 52.660156 61.253906 M 35.761719 59.011719 L 37.355469 57.085938 L 40.226562 57.085938 C 41.5 57.085938 42.136719 57.726562 42.136719 59.011719 L 42.136719 61.253906 C 42.136719 62.539062 41.5 63.179688 40.226562 63.179688 L 37.355469 63.179688 L 35.761719 61.253906 L 35.761719 59.011719 M 23.964844 63.179688 L 20.777344 63.179688 L 19.179688 61.253906 L 19.179688 59.011719 L 20.777344 57.085938 L 23.964844 57.085938 L 25.238281 59.011719 L 25.238281 61.253906 C 25.238281 62.539062 24.8125 63.179688 23.964844 63.179688 M 4.195312 57.085938 L 7.066406 57.085938 C 8.128906 57.085938 8.660156 57.726562 8.660156 59.011719 L 8.660156 61.253906 C 8.660156 62.539062 8.128906 63.179688 7.066406 63.179688 L 4.195312 63.179688 C 3.132812 63.179688 2.601562 62.539062 2.601562 61.253906 L 2.601562 59.011719 L 4.195312 57.085938 M 2.601562 1.925781 L 4.195312 0 L 7.066406 0 C 8.128906 0 8.660156 0.640625 8.660156 1.925781 L 8.660156 4.488281 C 8.660156 5.773438 8.128906 6.414062 7.066406 6.414062 L 4.195312 6.414062 C 3.132812 6.414062 2.601562 5.773438 2.601562 4.488281 L 2.601562 1.925781 M 19.179688 1.925781 L 20.777344 0 L 23.964844 0 L 25.238281 1.925781 L 25.238281 4.488281 C 25.238281 5.773438 24.8125 6.414062 23.964844 6.414062 L 20.777344 6.414062 L 19.179688 4.488281 L 19.179688 1.925781 M 37.355469 0 L 40.226562 0 C 41.5 0 42.136719 0.640625 42.136719 1.925781 L 42.136719 4.488281 C 42.136719 5.773438 41.5 6.414062 40.226562 6.414062 L 37.355469 6.414062 L 35.761719 4.488281 L 35.761719 1.925781 L 37.355469 0 M 56.804688 0 C 58.078125 0 58.71875 0.640625 58.71875 1.925781 L 58.71875 4.488281 C 58.71875 5.773438 58.078125 6.414062 56.804688 6.414062 L 53.933594 6.414062 C 53.085938 6.414062 52.660156 5.773438 52.660156 4.488281 L 52.660156 1.925781 L 53.933594 0 L 56.804688 0 M 71.789062 105.832031 L 71.789062 100.382812 L 59.355469 100.382812 L 59.355469 105.832031 L 71.789062 105.832031 M 86.457031 119.945312 L 86.457031 113.851562 L 44.6875 113.53125 L 44.6875 119.945312 L 86.457031 119.945312 M 64.457031 76.007812 L 64.457031 73.441406 L 47.875 75.6875 C 41.5 77.398438 37.992188 80.925781 37.355469 86.269531 L 42.457031 85.308594 L 47.875 84.347656 L 46.921875 81.78125 L 46.28125 79.214844 C 48.621094 76.863281 51.492188 76.113281 54.890625 76.96875 C 58.503906 77.609375 60.523438 79.640625 60.949219 83.0625 L 65.414062 83.0625 L 72.109375 84.347656 L 81.671875 85.949219 L 92.195312 86.269531 C 91.558594 80.925781 88.15625 77.398438 81.992188 75.6875 L 65.414062 73.441406 C 64.988281 74.9375 65.199219 75.902344 66.050781 76.328125 L 68.601562 76.648438 L 69.238281 78.574219 L 64.457031 78.574219 L 60.628906 77.289062 L 62.542969 76.328125 L 64.457031 76.007812 M 101.761719 79.855469 L 101.761719 92.683594 L 99.847656 105.832031 L 101.441406 108.078125 L 101.761719 111.285156 C 101.761719 113.421875 99.636719 114.492188 95.382812 114.492188 L 95.382812 119.945312 L 122.804688 120.585938 C 125.566406 121.867188 126.949219 124.007812 126.949219 127 L 1.007812 127 C 0.371094 124.21875 0.6875 122.296875 1.964844 121.226562 L 19.179688 119.945312 L 34.484375 119.945312 L 34.484375 114.492188 C 30.234375 114.492188 28.109375 113.421875 28.109375 111.285156 L 28.425781 108.078125 L 30.023438 105.832031 L 28.109375 92.683594 L 28.109375 79.855469 C 31.085938 80.070312 33.527344 81.886719 35.441406 85.308594 C 38.207031 79.964844 40.863281 76.433594 43.414062 74.726562 C 47.875 71.304688 54.890625 69.59375 64.457031 69.59375 L 65.414062 69.59375 C 74.976562 69.59375 81.992188 71.304688 86.457031 74.726562 C 89.007812 76.433594 91.769531 79.964844 94.746094 85.308594 C 96.445312 81.886719 98.785156 80.070312 101.761719 79.855469 M 99.527344 93.644531 L 101.121094 82.101562 C 98.785156 84.453125 96.660156 90.011719 94.746094 98.777344 C 94.320312 99.632812 94.640625 100.167969 95.703125 100.382812 L 97.617188 100.382812 L 99.527344 93.644531 M 120.253906 11.546875 L 120.253906 51.953125 L 7.703125 51.953125 L 7.703125 11.546875 L 120.253906 11.546875 M 120.570312 57.085938 L 123.441406 57.085938 L 125.035156 59.011719 L 125.035156 61.253906 C 125.035156 62.539062 124.503906 63.179688 123.441406 63.179688 L 120.570312 63.179688 C 119.507812 63.179688 118.976562 62.539062 118.976562 61.253906 L 118.976562 59.011719 C 118.976562 57.726562 119.507812 57.085938 120.570312 57.085938 M 103.671875 57.085938 L 106.863281 57.085938 L 108.457031 59.011719 L 108.457031 61.253906 L 106.863281 63.179688 L 103.671875 63.179688 C 102.824219 63.179688 102.398438 62.539062 102.398438 61.253906 L 102.398438 59.011719 L 103.671875 57.085938 M 87.414062 63.179688 C 86.136719 63.179688 85.5 62.539062 85.5 61.253906 L 85.5 59.011719 C 85.5 57.726562 86.136719 57.085938 87.414062 57.085938 L 90.28125 57.085938 L 91.875 59.011719 L 91.875 61.253906 L 90.28125 63.179688 L 87.414062 63.179688 M 73.703125 63.179688 L 70.832031 63.179688 C 69.558594 63.179688 68.921875 62.539062 68.921875 61.253906 L 68.921875 59.011719 C 68.921875 57.726562 69.558594 57.085938 70.832031 57.085938 L 73.703125 57.085938 L 74.976562 59.011719 L 74.976562 61.253906 C 74.976562 62.539062 74.554688 63.179688 73.703125 63.179688 M 70.832031 0 L 73.703125 0 L 74.976562 1.925781 L 74.976562 4.488281 C 74.976562 5.773438 74.554688 6.414062 73.703125 6.414062 L 70.832031 6.414062 C 69.558594 6.414062 68.921875 5.773438 68.921875 4.488281 L 68.921875 1.925781 C 68.921875 0.640625 69.558594 0 70.832031 0 M 87.414062 0 L 90.28125 0 L 91.875 1.925781 L 91.875 4.488281 L 90.28125 6.414062 L 87.414062 6.414062 C 86.136719 6.414062 85.5 5.773438 85.5 4.488281 L 85.5 1.925781 C 85.5 0.640625 86.136719 0 87.414062 0 M 103.671875 0 L 106.863281 0 L 108.457031 1.925781 L 108.457031 4.488281 L 106.863281 6.414062 L 103.671875 6.414062 C 102.824219 6.414062 102.398438 5.773438 102.398438 4.488281 L 102.398438 1.925781 L 103.671875 0 M 123.441406 0 L 125.035156 1.925781 L 125.035156 4.488281 C 125.035156 5.773438 124.503906 6.414062 123.441406 6.414062 L 120.570312 6.414062 C 119.507812 6.414062 118.976562 5.773438 118.976562 4.488281 L 118.976562 1.925781 C 118.976562 0.640625 119.507812 0 120.570312 0 L 123.441406 0 "/>
</g>
</svg>
