<?xml version="1.0" encoding="UTF-8"?>
<svg xmlns="http://www.w3.org/2000/svg" xmlns:xlink="http://www.w3.org/1999/xlink" width="128pt" height="217pt" viewBox="0 0 128 217" version="1.1">
<g id="surface1">
<path style=" stroke:none;fill-rule:nonzero;fill-opacity:1;" d="M 70.867188 148.46875 L 70.867188 209.242188 L 91.742188 209.242188 L 91.742188 148.46875 L 70.867188 148.46875 M 38.453125 121.09375 L 38.453125 132.589844 L 91.191406 132.589844 L 91.191406 121.09375 L 38.453125 121.09375 M 54.9375 209.242188 L 54.9375 148.46875 L 36.257812 148.46875 L 36.257812 209.242188 L 54.9375 209.242188 M 100.53125 59.769531 L 100.53125 99.191406 L 109.320312 111.238281 L 109.320312 209.242188 L 128 209.242188 L 128 216.910156 L 0 216.910156 L 0 209.242188 L 18.128906 209.242188 L 18.128906 111.238281 L 27.46875 99.191406 L 27.46875 60.316406 L 63.175781 0.0898438 L 100.53125 59.769531 M 73.613281 71.816406 C 71.050781 69.261719 67.9375 67.984375 64.273438 67.984375 C 60.246094 67.984375 56.949219 69.261719 54.386719 71.816406 L 50.539062 80.578125 L 54.386719 89.335938 C 56.949219 91.890625 60.246094 93.167969 64.273438 93.167969 C 67.9375 93.167969 71.050781 91.890625 73.613281 89.335938 C 76.175781 87.148438 77.460938 84.226562 77.460938 80.578125 C 77.460938 76.925781 76.175781 74.007812 73.613281 71.816406 "/>
</g>
</svg>
