<?xml version="1.0" encoding="UTF-8"?>
<svg xmlns="http://www.w3.org/2000/svg" xmlns:xlink="http://www.w3.org/1999/xlink" width="128pt" height="134pt" viewBox="0 0 128 134" version="1.1">
<g id="surface1">
<path style=" stroke:none;fill-rule:nonzero;fill-opacity:1;" d="M 73.597656 69.664062 C 73.597656 72.507812 72.648438 74.878906 70.753906 76.773438 C 68.859375 78.90625 66.488281 79.972656 63.644531 79.972656 C 61.039062 79.972656 58.667969 78.90625 56.535156 76.773438 C 54.640625 74.878906 53.691406 72.507812 53.691406 69.664062 C 53.691406 67.058594 54.640625 64.808594 56.535156 62.914062 C 58.667969 61.015625 61.039062 60.070312 63.644531 60.070312 C 66.488281 60.070312 68.859375 61.015625 70.753906 62.914062 C 72.648438 64.808594 73.597656 67.058594 73.597656 69.664062 M 66.488281 114.449219 L 108.082031 72.507812 C 107.371094 70.851562 107.371094 69.074219 108.082031 67.175781 L 66.488281 25.589844 L 60.800781 25.589844 L 19.207031 67.175781 L 19.207031 72.507812 L 60.800781 114.449219 L 66.488281 114.449219 M 117.679688 60.070312 C 120.523438 60.070312 122.894531 61.015625 124.789062 62.914062 L 127.988281 69.664062 L 124.789062 76.773438 C 121.945312 79.617188 118.746094 80.449219 115.191406 79.261719 L 73.242188 121.203125 C 74.429688 124.996094 73.597656 128.3125 70.753906 131.15625 C 68.859375 133.050781 66.488281 134 63.644531 134 C 61.039062 134 58.667969 133.050781 56.535156 131.15625 C 53.925781 128.074219 53.214844 124.757812 54.402344 121.203125 L 12.453125 79.261719 C 8.660156 80.683594 5.34375 79.855469 2.5 76.773438 C 0.839844 74.878906 0.0117188 72.507812 0.0117188 69.664062 L 2.5 62.914062 L 6.765625 60.425781 C 7.238281 43.601562 12.808594 29.265625 23.472656 17.417969 C 34.375 5.804688 47.292969 0 62.222656 0 C 77.152344 0 89.949219 5.804688 100.617188 17.417969 C 111.28125 29.027344 116.96875 43.246094 117.679688 60.070312 "/>
</g>
</svg>
