<?xml version="1.0" encoding="UTF-8"?>
<svg xmlns="http://www.w3.org/2000/svg" xmlns:xlink="http://www.w3.org/1999/xlink" width="128pt" height="144pt" viewBox="0 0 128 144" version="1.1">
<g id="surface1">
<path style=" stroke:none;fill-rule:nonzero;fill-opacity:1;" d="M 103.089844 82.910156 C 94.324219 93.574219 83.242188 99.636719 69.84375 101.089844 L 69.84375 125.816406 L 103.089844 125.816406 L 103.089844 82.910156 M 24.910156 125.816406 L 58.15625 125.816406 L 58.15625 101.089844 C 44.757812 99.636719 33.675781 93.574219 24.910156 82.910156 L 24.910156 125.816406 M 0.0664062 144 L 0.0664062 125.816406 L 13.21875 125.816406 L 13.21875 49.816406 L 114.78125 49.816406 L 114.78125 125.816406 L 127.933594 125.816406 L 127.933594 144 L 0.0664062 144 M 64 0 C 76.421875 0 87.257812 4 96.515625 12 C 106.011719 19.757812 111.859375 29.695312 114.050781 41.816406 L 13.949219 41.816406 C 16.140625 29.695312 21.988281 19.757812 31.484375 12 C 40.742188 4 51.578125 0 64 0 "/>
</g>
</svg>
