<?xml version="1.0" encoding="UTF-8"?>
<svg xmlns="http://www.w3.org/2000/svg" xmlns:xlink="http://www.w3.org/1999/xlink" width="128pt" height="128pt" viewBox="0 0 128 128" version="1.1">
<g id="surface1">
<path style=" stroke:none;fill-rule:nonzero;fill-opacity:1;" d="M 64 13.925781 C 54.273438 13.925781 45.207031 16.582031 36.808594 21.886719 C 28.851562 26.96875 22.769531 33.824219 18.570312 42.445312 C 21 43.328125 22.21875 45.097656 22.21875 47.75 L 22.21875 80.582031 C 22.21875 83.011719 21 84.78125 18.570312 85.886719 C 22.769531 94.285156 28.851562 101.140625 36.808594 106.445312 C 45.207031 111.75 54.273438 114.402344 64 114.402344 C 77.707031 114.402344 89.535156 109.429688 99.480469 99.480469 C 109.207031 89.535156 114.074219 77.707031 114.074219 64 C 114.074219 50.292969 109.207031 38.464844 99.480469 28.519531 C 89.535156 18.792969 77.707031 13.925781 64 13.925781 M 74.613281 47.75 L 82.570312 64.996094 C 85.664062 71.183594 87.210938 76.933594 87.210938 82.238281 C 87.210938 88.429688 85 93.84375 80.582031 98.488281 C 76.160156 102.910156 70.742188 105.121094 64.332031 105.121094 C 57.921875 105.121094 52.613281 102.910156 48.414062 98.488281 C 43.773438 93.84375 41.449219 88.429688 41.449219 82.238281 C 41.449219 77.152344 42.886719 71.625 45.761719 65.65625 L 53.386719 48.746094 L 60.019531 27.191406 L 64.332031 17.574219 C 65.214844 17.574219 66.542969 20.671875 68.3125 26.859375 C 70.964844 36.808594 73.0625 43.773438 74.613281 47.75 M 109.097656 18.902344 C 121.699219 31.28125 128 46.3125 128 64 C 128 81.6875 121.699219 96.828125 109.097656 109.429688 C 96.71875 121.808594 81.6875 128 64 128 C 46.3125 128 31.171875 121.808594 18.570312 109.429688 C 6.191406 96.828125 0 81.6875 0 64 C 0 46.3125 6.191406 31.28125 18.570312 18.902344 C 31.171875 6.300781 46.3125 0 64 0 C 81.6875 0 96.71875 6.300781 109.097656 18.902344 "/>
</g>
</svg>
