<?xml version="1.0" encoding="UTF-8"?>
<svg xmlns="http://www.w3.org/2000/svg" xmlns:xlink="http://www.w3.org/1999/xlink" width="128pt" height="125pt" viewBox="0 0 128 125" version="1.1">
<g id="surface1">
<path style=" stroke:none;fill-rule:nonzero;fill-opacity:1;" d="M 24.269531 115.957031 C 25.132812 116.601562 25.992188 116.386719 26.855469 115.308594 L 28.148438 112.082031 L 23.300781 111.757812 C 22.871094 113.910156 23.195312 115.308594 24.269531 115.957031 M 35.253906 74.933594 C 34.175781 72.566406 32.992188 71.8125 31.699219 72.675781 L 31.054688 75.257812 L 31.699219 78.164062 C 32.992188 80.320312 34.285156 80.964844 35.578125 80.101562 C 36.652344 79.027344 36.546875 77.304688 35.253906 74.933594 M 30.730469 28.746094 C 29.007812 30.683594 28.792969 33.269531 30.085938 36.5 C 31.378906 39.730469 33.101562 40.589844 35.253906 39.082031 L 35.253906 38.757812 C 37.191406 37.035156 37.515625 34.453125 36.222656 31.007812 C 34.714844 27.777344 32.882812 27.023438 30.730469 28.746094 M 102.4375 116.925781 C 103.730469 113.695312 103.40625 111.21875 101.46875 109.496094 C 99.53125 107.558594 97.808594 108.3125 96.300781 111.757812 C 95.007812 115.203125 95.332031 117.785156 97.269531 119.507812 L 97.269531 119.832031 C 99.421875 121.339844 101.144531 120.371094 102.4375 116.925781 M 92.421875 74.289062 C 91.132812 73.644531 89.949219 74.398438 88.871094 76.550781 C 87.792969 79.351562 87.6875 81.179688 88.546875 82.042969 C 89.839844 82.902344 91.132812 82.148438 92.421875 79.78125 C 93.285156 76.765625 93.285156 74.933594 92.421875 74.289062 M 121.816406 91.085938 L 122.460938 91.410156 L 123.753906 94.636719 L 121.816406 97.546875 L 121.816406 97.867188 L 120.523438 98.191406 L 120.523438 98.515625 L 120.203125 98.835938 L 119.878906 98.515625 L 117.617188 100.128906 L 116.972656 100.453125 L 117.617188 100.453125 L 123.753906 101.097656 L 123.753906 101.746094 L 121.171875 103.035156 L 115.679688 103.035156 L 115.035156 104.328125 C 116.757812 104.328125 117.832031 104.757812 118.261719 105.621094 L 118.261719 106.265625 L 114.066406 107.234375 L 114.066406 108.203125 L 113.09375 111.109375 L 111.804688 113.695312 C 111.371094 114.339844 110.621094 114.664062 109.542969 114.664062 L 108.898438 114.339844 L 108.25 111.109375 L 107.925781 110.140625 C 108.144531 114.878906 106.636719 118.863281 103.40625 122.09375 L 98.882812 124.675781 C 97.160156 124.890625 95.546875 124.246094 94.039062 122.738281 C 92.53125 120.800781 91.886719 118.324219 92.101562 115.308594 L 93.070312 111.433594 L 93.714844 109.820312 L 90.484375 115.957031 L 90.164062 116.277344 L 32.667969 114.339844 L 31.378906 117.570312 L 31.378906 117.894531 L 27.5 122.738281 L 22.65625 123.707031 L 19.101562 119.1875 L 18.78125 113.371094 L 16.84375 113.371094 L 11.996094 112.082031 L 11.351562 110.464844 L 7.796875 108.527344 L 8.121094 108.203125 L 11.675781 106.914062 C 12.105469 106.050781 12.859375 105.511719 13.933594 105.296875 L 12.964844 105.296875 L 10.058594 104.328125 L 10.382812 103.683594 L 13.933594 102.390625 L 15.226562 102.390625 L 11.675781 97.867188 L 8.445312 95.285156 L 7.152344 93.992188 L 6.507812 92.378906 L 8.445312 92.054688 L 11.351562 92.378906 L 23.300781 93.667969 L 37.835938 91.085938 L 48.171875 87.210938 L 59.15625 85.269531 L 59.476562 85.59375 L 57.539062 88.179688 L 54.632812 92.054688 L 53.019531 95.929688 L 54.632812 96.578125 L 68.84375 95.605469 L 70.136719 90.761719 C 70.351562 89.039062 70.78125 88.394531 71.429688 88.824219 L 71.105469 91.730469 L 70.460938 95.285156 L 71.429688 94.960938 L 73.042969 90.117188 L 74.011719 85.59375 L 74.011719 85.269531 L 77.566406 87.210938 L 82.085938 92.699219 L 103.40625 86.242188 L 113.742188 83.980469 L 116.972656 83.980469 L 116.003906 87.210938 L 115.679688 88.179688 L 116.324219 88.179688 L 118.261719 88.824219 L 119.878906 89.792969 L 120.523438 88.824219 L 120.523438 89.148438 L 120.203125 89.792969 L 121.816406 91.085938 M 108.25 35.53125 L 109.21875 31.332031 L 104.375 31.332031 L 105.667969 34.5625 C 106.527344 35.636719 107.390625 35.960938 108.25 35.53125 M 75.304688 37.789062 L 86.933594 38.113281 L 100.175781 41.988281 L 103.730469 43.28125 L 100.820312 40.699219 L 101.46875 39.730469 L 105.988281 44.574219 L 111.804688 47.480469 L 110.511719 48.125 L 107.925781 46.835938 L 112.449219 53.941406 L 122.785156 61.691406 L 124.722656 61.691406 L 124.402344 62.015625 L 123.429688 62.015625 L 126.015625 64.921875 L 126.339844 64.597656 L 126.339844 64.277344 C 126.554688 63.847656 126.875 63.628906 127.308594 63.628906 L 127.628906 63.628906 L 126.660156 65.570312 L 127.953125 67.183594 L 126.660156 67.828125 L 125.691406 66.539062 L 122.460938 69.445312 L 122.785156 69.765625 L 122.460938 70.414062 L 121.816406 69.765625 L 116.648438 72.675781 L 98.238281 77.519531 L 94.363281 84.300781 C 90.699219 88.179688 87.578125 88.5 84.996094 85.269531 L 84.671875 85.269531 C 83.164062 83.332031 82.519531 80.75 82.734375 77.519531 L 82.734375 76.550781 L 81.765625 76.550781 L 82.085938 77.519531 L 80.796875 78.164062 L 80.148438 76.875 L 40.746094 75.582031 C 41.175781 78.597656 40.636719 81.179688 39.128906 83.332031 L 38.804688 83.332031 C 37.515625 85.054688 36.007812 85.808594 34.285156 85.59375 L 29.4375 83.011719 C 27.070312 80.855469 25.5625 77.949219 24.917969 74.289062 L 24.269531 74.613281 L 23.625 74.613281 L 23.949219 75.90625 L 22.65625 76.550781 L 22.332031 74.289062 C 15.441406 73.210938 9.738281 71.273438 5.214844 68.476562 L 0.046875 63.628906 L 0.371094 63.308594 L 2.308594 62.339844 L 2.308594 62.015625 L 20.074219 55.878906 L 23.625 52.003906 L 24.59375 51.355469 L 32.667969 50.386719 L 49.464844 52.003906 L 53.664062 51.679688 L 55.277344 51.035156 L 63.355469 44.574219 L 75.304688 37.789062 M 75.628906 41.988281 L 75.304688 42.3125 L 74.660156 42.3125 L 73.367188 43.28125 L 64.644531 49.417969 L 58.507812 56.203125 L 67.554688 57.171875 L 65.292969 53.941406 L 65.9375 53.292969 L 67.230469 52.972656 L 70.136719 57.492188 L 81.765625 57.492188 L 89.839844 56.203125 L 90.808594 55.234375 L 90.484375 55.878906 L 90.484375 56.203125 L 97.269531 54.261719 C 96.40625 51.679688 94.253906 49.09375 90.808594 46.511719 L 83.703125 43.28125 L 80.148438 42.3125 L 76.273438 41.988281 L 75.628906 41.988281 M 79.179688 15.179688 L 77.890625 11.628906 L 74.980469 7.75 L 58.832031 4.523438 L 58.507812 4.84375 L 58.507812 5.167969 L 60.769531 14.535156 L 62.0625 14.535156 L 61.417969 11.304688 L 60.769531 8.074219 L 61.09375 8.074219 L 62.386719 10.335938 L 63.355469 14.859375 L 77.890625 15.828125 C 78.535156 15.828125 78.964844 15.613281 79.179688 15.179688 M 126.015625 11.628906 L 125.371094 13.566406 L 123.753906 14.535156 L 117.292969 21.640625 L 118.585938 21.964844 L 122.140625 22.933594 L 122.140625 23.578125 C 121.707031 24.226562 120.847656 24.546875 119.554688 24.546875 L 118.585938 24.871094 L 120.847656 26.164062 L 124.402344 27.453125 L 124.722656 28.101562 L 121.171875 30.039062 L 120.523438 31.332031 C 119.449219 32.191406 117.832031 32.730469 115.679688 32.945312 L 113.742188 32.945312 L 113.417969 38.757812 C 112.773438 41.128906 111.589844 42.527344 109.867188 42.957031 L 105.019531 41.988281 L 101.144531 37.46875 L 101.144531 36.820312 L 99.851562 33.589844 L 42.035156 35.53125 L 38.804688 29.070312 L 39.453125 30.683594 L 40.097656 34.5625 C 40.527344 37.574219 39.992188 40.050781 38.484375 41.988281 L 38.160156 42.3125 C 36.867188 43.820312 35.359375 44.464844 33.636719 44.25 L 28.792969 41.34375 C 25.777344 38.328125 24.378906 34.453125 24.59375 29.714844 L 24.269531 30.683594 L 23.625 33.589844 L 22.65625 33.914062 C 22.011719 34.34375 21.363281 34.023438 20.71875 32.945312 L 18.457031 27.453125 L 18.132812 26.808594 C 16.195312 27.023438 14.90625 26.59375 14.257812 25.515625 L 14.257812 24.871094 L 17.164062 23.902344 L 16.84375 22.285156 L 11.351562 22.285156 C 10.058594 22.070312 9.089844 21.640625 8.445312 20.996094 L 8.445312 20.671875 L 14.90625 20.027344 L 15.226562 20.027344 L 14.90625 19.378906 L 12.320312 18.085938 L 11.996094 18.085938 L 11.996094 17.441406 L 10.707031 17.117188 L 8.765625 14.210938 L 10.058594 10.660156 L 10.382812 10.660156 L 12.320312 9.367188 L 11.675781 8.398438 L 11.996094 8.074219 L 12.320312 9.042969 L 16.195312 7.75 L 16.84375 7.75 L 16.195312 6.78125 L 15.226562 3.554688 L 16.519531 3.230469 L 18.78125 3.554688 L 29.117188 5.8125 L 49.464844 11.628906 L 56.570312 0 L 57.863281 0 L 66.582031 1.292969 C 73.257812 2.582031 79.074219 4.304688 84.027344 6.460938 L 94.683594 10.660156 L 109.21875 13.242188 L 120.847656 11.628906 L 124.078125 11.304688 L 126.015625 11.628906 "/>
</g>
</svg>
