<?xml version="1.0" encoding="UTF-8"?>
<svg xmlns="http://www.w3.org/2000/svg" xmlns:xlink="http://www.w3.org/1999/xlink" width="128pt" height="131pt" viewBox="0 0 128 131" version="1.1">
<g id="surface1">
<path style=" stroke:none;fill-rule:nonzero;fill-opacity:1;" d="M 128 0.0078125 L 128 130.992188 L 0 130.992188 L 0 76.746094 L 28.519531 55.246094 L 28.519531 76.414062 L 56.703125 55.246094 L 56.703125 76.414062 L 83.566406 55.90625 L 83.566406 0.0078125 L 101.140625 0.0078125 L 101.140625 70.792969 L 110.425781 70.792969 L 110.425781 0.0078125 L 128 0.0078125 M 76.269531 92.621094 L 59.027344 92.621094 L 59.027344 100.890625 L 76.269531 100.890625 L 76.269531 92.621094 M 76.269531 106.515625 L 59.027344 106.515625 L 59.027344 114.785156 L 76.269531 114.785156 L 76.269531 106.515625 M 52.726562 92.621094 L 35.480469 92.621094 L 35.480469 100.890625 L 52.726562 100.890625 L 52.726562 92.621094 M 29.179688 92.621094 L 11.9375 92.621094 L 11.9375 100.890625 L 29.179688 100.890625 L 29.179688 92.621094 M 29.179688 114.785156 L 29.179688 106.515625 L 11.9375 106.515625 L 11.9375 114.785156 L 29.179688 114.785156 M 35.480469 114.785156 L 52.726562 114.785156 L 52.726562 106.515625 L 35.480469 106.515625 L 35.480469 114.785156 "/>
</g>
</svg>
