<?xml version="1.0" encoding="UTF-8"?>
<svg xmlns="http://www.w3.org/2000/svg" xmlns:xlink="http://www.w3.org/1999/xlink" width="128pt" height="128pt" viewBox="0 0 128 128" version="1.1">
<g id="surface1">
<path style=" stroke:none;fill-rule:nonzero;fill-opacity:1;" d="M 79.667969 100.667969 C 79.667969 99.554688 78.222656 99 75.332031 99 C 72.890625 99 71.667969 99.554688 71.667969 100.667969 L 71.667969 113 L 79.667969 113 L 79.667969 100.667969 M 75.332031 80 C 72.890625 80 71.667969 80.554688 71.667969 81.667969 L 71.667969 93.667969 L 79.667969 93.667969 L 79.667969 81.667969 C 79.667969 80.554688 78.222656 80 75.332031 80 M 95.332031 72 L 97.332031 71 L 99 68.332031 L 97.332031 66 L 95.332031 64.667969 C 94.222656 64.667969 93.332031 65.109375 92.667969 66 L 92 68.332031 L 92.667969 71 L 95.332031 72 M 104.332031 93.667969 L 104.332031 81.667969 C 104.332031 80.554688 103.109375 80 100.667969 80 C 97.777344 80 96.332031 80.554688 96.332031 81.667969 L 96.332031 93.667969 L 104.332031 93.667969 M 104.332031 100.667969 C 104.332031 99.554688 103.109375 99 100.667969 99 C 97.777344 99 96.332031 99.554688 96.332031 100.667969 L 96.332031 113 L 104.332031 113 L 104.332031 100.667969 M 29.667969 100.667969 C 29.667969 99.554688 28.332031 99 25.667969 99 C 23 99 21.667969 99.554688 21.667969 100.667969 L 21.667969 113 L 29.667969 113 L 29.667969 100.667969 M 25.667969 80 C 23 80 21.667969 80.554688 21.667969 81.667969 L 21.667969 93.667969 L 29.667969 93.667969 L 29.667969 81.667969 C 29.667969 80.554688 28.332031 80 25.667969 80 M 55 100.667969 C 55 99.554688 53.554688 99 50.667969 99 C 48 99 46.667969 99.554688 46.667969 100.667969 L 46.667969 113 L 55 113 L 55 100.667969 M 35 66 L 32.332031 64.667969 L 29.667969 66 L 29 68.332031 L 29.667969 71 L 32.332031 72 L 35 71 L 36 68.332031 C 36 67.222656 35.667969 66.445312 35 66 M 55 81.667969 C 55 80.554688 53.554688 80 50.667969 80 C 48 80 46.667969 80.554688 46.667969 81.667969 L 46.667969 93.667969 L 55 93.667969 L 55 81.667969 M 56.332031 66 L 52.667969 73 L 73 73 L 69.332031 66 C 67.554688 64.222656 65.445312 63.332031 63 63.332031 C 60.777344 63.332031 58.554688 64.222656 56.332031 66 M 67.332031 40.332031 L 67.332031 28.667969 C 67.332031 26.445312 66 25.332031 63.332031 25.332031 C 60.890625 25.332031 59.667969 26.445312 59.667969 28.667969 L 59.667969 40.332031 L 67.332031 40.332031 M 65.667969 14.667969 C 70.554688 14.890625 74.332031 17 77 21 L 78.667969 27 L 78.667969 42 L 84.332031 43.667969 L 84.332031 53.667969 L 89.332031 57 L 105.332031 57 L 105.332031 66 L 120 74.667969 L 111.332031 74.667969 L 111.332031 121 L 128 121 L 128 128 L 0 128 L 0 121 L 15 121 L 15 74.667969 L 7.667969 74.667969 L 21.667969 66.667969 L 21.667969 57 L 37.667969 57 L 44 53.667969 L 44 43.667969 L 50 42 L 50 27 L 51.667969 21 C 53.890625 17 57.667969 14.890625 63 14.667969 L 63 0 L 65.667969 0 L 65.667969 14.667969 "/>
</g>
</svg>
