<?xml version="1.0" encoding="UTF-8"?>
<svg xmlns="http://www.w3.org/2000/svg" xmlns:xlink="http://www.w3.org/1999/xlink" width="128pt" height="132pt" viewBox="0 0 128 132" version="1.1">
<g id="surface1">
<path style=" stroke:none;fill-rule:nonzero;fill-opacity:1;" d="M 63.328125 41 C 61.542969 39.222656 59.421875 38.332031 56.964844 38.332031 C 54.507812 38.332031 52.386719 39.222656 50.597656 41 C 49.035156 42.554688 48.253906 44.554688 48.253906 47 C 48.253906 49.445312 49.035156 51.554688 50.597656 53.332031 C 52.386719 54.890625 54.507812 55.667969 56.964844 55.667969 C 59.421875 55.667969 61.542969 54.890625 63.328125 53.332031 C 64.894531 51.554688 65.675781 49.445312 65.675781 47 C 65.675781 44.554688 64.894531 42.554688 63.328125 41 M 125.640625 132 L 101.1875 132 L 110.902344 100.667969 C 115.589844 86.667969 120.503906 75.667969 125.640625 67.667969 L 125.640625 132 M 101.855469 88 C 94.261719 104.222656 88.230469 118.890625 83.765625 132 L 52.273438 132 C 71.929688 101.109375 91.695312 79.667969 111.570312 67.667969 L 101.855469 88 M 98.171875 67.667969 L 74.71875 86.332031 C 56.628906 101.890625 41.777344 117.109375 30.164062 132 L 0.0117188 132 L 0.0117188 119.332031 C 19.890625 103.332031 32.621094 93.667969 38.203125 90.332031 C 57.1875 78.332031 77.175781 70.777344 98.171875 67.667969 M 111.570312 49.332031 L 107.550781 51 L 105.875 54.667969 C 105.875 56.222656 106.433594 57.554688 107.550781 58.667969 C 108.667969 59.777344 110.007812 60.332031 111.570312 60.332031 L 115.257812 58.667969 L 116.929688 54.667969 L 115.257812 51 L 111.570312 49.332031 M 104.535156 61.667969 C 102.527344 59.667969 101.519531 57.332031 101.519531 54.667969 C 101.519531 52 102.527344 49.667969 104.535156 47.667969 C 106.546875 45.667969 108.890625 44.667969 111.570312 44.667969 C 114.25 44.667969 116.597656 45.667969 118.605469 47.667969 C 120.617188 49.667969 121.621094 52 121.621094 54.667969 C 121.621094 57.332031 120.617188 59.667969 118.605469 61.667969 C 116.597656 63.667969 114.25 64.667969 111.570312 64.667969 C 108.890625 64.667969 106.546875 63.667969 104.535156 61.667969 M 69.695312 34.332031 C 73.492188 37.890625 75.390625 42.109375 75.390625 47 C 75.390625 51.222656 74.050781 55 71.371094 58.332031 C 68.691406 61.667969 65.339844 63.777344 61.320312 64.667969 L 79.410156 66.667969 L 56.292969 74.332031 C 37.3125 81.445312 18.550781 90.109375 0.0117188 100.332031 L 0.0117188 72.667969 L 18.773438 66.667969 L 50.597656 64.332031 C 47.027344 63 44.234375 60.777344 42.222656 57.667969 C 39.769531 54.554688 38.539062 51 38.539062 47 C 38.539062 41.890625 40.324219 37.667969 43.898438 34.332031 C 47.472656 30.554688 51.828125 28.667969 56.964844 28.667969 C 62.101562 28.667969 66.34375 30.554688 69.695312 34.332031 M 77.734375 3.332031 L 66.34375 3.332031 L 66.34375 21.667969 L 82.761719 21.667969 L 77.734375 3.332031 M 110.902344 8.332031 L 115.589844 8.332031 L 115.589844 24.667969 L 122.625 25.332031 L 127.988281 47.332031 L 125.640625 50.332031 L 124.636719 50.332031 L 119.613281 43.332031 C 117.15625 41.554688 114.476562 40.667969 111.570312 40.667969 C 108.445312 40.667969 105.652344 41.554688 103.195312 43.332031 C 100.738281 45.109375 99.0625 47.445312 98.171875 50.332031 L 79.074219 50.332031 L 79.410156 47 C 79.410156 40.777344 77.175781 35.554688 72.710938 31.332031 C 68.46875 26.890625 63.21875 24.667969 56.964844 24.667969 C 52.050781 24.667969 47.808594 26 44.234375 28.667969 L 44.234375 0 L 79.074219 0 L 88.457031 21.667969 L 110.902344 23.667969 L 110.902344 8.332031 "/>
</g>
</svg>
