<?xml version="1.0" encoding="UTF-8"?>
<svg xmlns="http://www.w3.org/2000/svg" xmlns:xlink="http://www.w3.org/1999/xlink" width="128pt" height="158pt" viewBox="0 0 128 158" version="1.1">
<g id="surface1">
<path style=" stroke:none;fill-rule:nonzero;fill-opacity:1;" d="M 64 0 L 95.980469 31.917969 L 74.394531 31.917969 L 114.769531 72.21875 L 79.988281 72.21875 L 127.960938 119.695312 L 71.996094 119.695312 L 71.996094 140.445312 C 82.386719 140.976562 91.714844 142.839844 99.976562 146.03125 C 107.972656 149.222656 113.570312 153.210938 116.765625 158 L 11.632812 158 C 14.832031 153.476562 20.160156 149.621094 27.625 146.429688 C 35.085938 143.238281 43.878906 141.242188 54.007812 140.445312 L 56.40625 140.445312 L 56.40625 119.695312 L 0.0390625 119.695312 L 48.011719 72.21875 L 13.230469 72.21875 L 53.605469 31.917969 L 32.019531 31.917969 L 64 0 "/>
</g>
</svg>
