<?xml version="1.0" encoding="UTF-8"?>
<svg xmlns="http://www.w3.org/2000/svg" xmlns:xlink="http://www.w3.org/1999/xlink" width="128pt" height="128pt" viewBox="0 0 128 128" version="1.1">
<g id="surface1">
<path style=" stroke:none;fill-rule:nonzero;fill-opacity:1;" d="M 78.222656 19.71875 L 78.222656 49.777344 L 108.28125 49.777344 L 108.28125 78.222656 L 78.222656 78.222656 L 78.222656 108.28125 L 49.777344 108.28125 L 49.777344 78.222656 L 19.71875 78.222656 L 19.71875 49.777344 L 49.777344 49.777344 L 49.777344 19.71875 L 78.222656 19.71875 M 64 0 C 81.671875 0 96.753906 6.25 109.253906 18.746094 C 121.75 31.246094 128 46.328125 128 64 C 128 81.671875 121.75 96.753906 109.253906 109.253906 C 96.753906 121.75 81.671875 128 64 128 C 46.328125 128 31.246094 121.75 18.746094 109.253906 C 6.25 96.753906 0 81.671875 0 64 C 0 46.328125 6.25 31.246094 18.746094 18.746094 C 31.246094 6.25 46.328125 0 64 0 M 101.816406 26.183594 C 91.257812 15.621094 78.652344 10.34375 64 10.34375 C 49.347656 10.34375 36.847656 15.621094 26.503906 26.183594 C 15.945312 36.742188 10.667969 49.347656 10.667969 64 C 10.667969 78.652344 15.945312 91.257812 26.503906 101.816406 C 36.847656 112.160156 49.347656 117.332031 64 117.332031 C 78.652344 117.332031 91.257812 112.160156 101.816406 101.816406 C 112.160156 91.257812 117.332031 78.652344 117.332031 64 C 117.332031 49.347656 112.160156 36.742188 101.816406 26.183594 "/>
</g>
</svg>
