<?xml version="1.0" encoding="UTF-8"?>
<svg xmlns="http://www.w3.org/2000/svg" xmlns:xlink="http://www.w3.org/1999/xlink" width="128pt" height="128pt" viewBox="0 0 128 128" version="1.1">
<g id="surface1">
<path style=" stroke:none;fill-rule:nonzero;fill-opacity:1;" d="M 105.988281 27.089844 C 111.183594 27.089844 118.519531 46.277344 128 84.65625 L 125.289062 82.964844 L 120.890625 82.964844 L 115.472656 77.882812 L 109.035156 72.128906 C 106.554688 70.320312 103.957031 69.417969 101.25 69.417969 C 94.925781 69.417969 89.960938 72.238281 86.347656 77.882812 L 85.671875 79.578125 L 81.945312 82.625 L 76.867188 77.882812 L 70.433594 72.128906 C 67.949219 70.320312 65.355469 69.417969 62.644531 69.417969 C 56.324219 69.417969 51.359375 72.238281 47.746094 77.882812 L 47.070312 79.238281 L 43.34375 82.625 L 38.265625 77.882812 L 30.136719 71.109375 C 36.683594 52.148438 42.667969 42.667969 48.085938 42.667969 C 50.117188 42.667969 52.488281 45.261719 55.195312 50.453125 C 64 16.816406 71.5625 0 77.882812 0 C 82.171875 0 88.15625 13.433594 95.832031 40.296875 C 99.441406 31.492188 102.828125 27.089844 105.988281 27.089844 M 109.035156 82.285156 L 115.472656 88.042969 L 120.890625 92.78125 L 125.289062 92.78125 L 125.289062 103.617188 L 120.550781 103.617188 C 117.839844 103.617188 115.246094 102.601562 112.761719 100.570312 L 106.328125 95.152344 L 100.910156 90.074219 C 100.007812 90.074219 98.992188 90.75 97.863281 92.105469 L 96.507812 93.460938 L 96.167969 94.476562 C 92.558594 100.570312 87.816406 103.617188 81.945312 103.617188 C 79.238281 103.617188 76.640625 102.601562 74.160156 100.570312 L 67.726562 95.152344 L 62.308594 90.074219 L 57.90625 93.460938 L 57.566406 94.476562 C 53.953125 100.570312 49.214844 103.617188 43.34375 103.617188 L 35.554688 100.570312 L 29.121094 95.152344 L 23.703125 90.074219 L 19.300781 93.460938 L 18.964844 94.476562 C 15.351562 100.570312 10.609375 103.617188 4.742188 103.617188 L 0 103.617188 L 0 92.78125 L 4.742188 92.78125 C 6.09375 92.78125 7.222656 91.65625 8.128906 89.398438 L 9.144531 88.042969 C 12.753906 82.171875 17.722656 79.238281 24.042969 79.238281 C 26.75 79.238281 29.347656 80.253906 31.832031 82.285156 L 38.265625 88.042969 L 43.34375 92.78125 L 47.070312 89.398438 L 47.746094 88.042969 C 51.359375 82.171875 56.324219 79.238281 62.644531 79.238281 C 65.355469 79.238281 67.949219 80.253906 70.433594 82.285156 L 76.867188 88.042969 L 81.945312 92.78125 L 85.671875 89.398438 L 86.347656 88.042969 C 89.960938 82.171875 94.925781 79.238281 101.25 79.238281 C 103.957031 79.238281 106.554688 80.253906 109.035156 82.285156 M 96.167969 119.535156 C 92.558594 125.179688 87.816406 128 81.945312 128 C 79.238281 128 76.640625 127.210938 74.160156 125.628906 L 67.726562 119.535156 L 62.308594 114.792969 C 60.5 114.792969 59.035156 116.035156 57.90625 118.519531 L 57.566406 119.535156 C 53.953125 125.179688 49.214844 128 43.34375 128 L 35.554688 125.628906 L 29.121094 119.535156 C 26.414062 116.824219 24.605469 115.246094 23.703125 114.792969 C 21.898438 114.792969 20.429688 116.035156 19.300781 118.519531 L 18.964844 119.535156 C 15.351562 125.179688 10.609375 128 4.742188 128 L 0 128 L 0 117.503906 L 4.742188 117.503906 L 8.128906 114.453125 L 9.144531 112.761719 C 12.753906 107.117188 17.722656 104.296875 24.042969 104.296875 C 26.75 104.296875 29.347656 105.085938 31.832031 106.667969 L 38.265625 112.761719 L 43.34375 117.503906 L 47.070312 114.117188 L 47.746094 112.761719 C 51.359375 107.117188 56.324219 104.296875 62.644531 104.296875 C 65.355469 104.296875 67.949219 105.085938 70.433594 106.667969 L 76.867188 112.761719 L 81.945312 117.503906 L 85.671875 114.453125 L 86.347656 112.761719 C 89.960938 107.117188 94.925781 104.296875 101.25 104.296875 C 103.957031 104.296875 106.554688 105.085938 109.035156 106.667969 L 115.472656 112.761719 L 120.890625 117.503906 L 125.289062 117.503906 L 125.289062 128 L 120.550781 128 L 112.761719 125.628906 L 106.328125 119.535156 L 100.910156 114.792969 C 100.007812 114.792969 98.992188 115.359375 97.863281 116.488281 L 96.507812 118.519531 L 96.167969 119.535156 "/>
</g>
</svg>
