<?xml version="1.0" encoding="UTF-8"?>
<svg xmlns="http://www.w3.org/2000/svg" xmlns:xlink="http://www.w3.org/1999/xlink" width="128pt" height="127pt" viewBox="0 0 128 127" version="1.1">
<g id="surface1">
<path style=" stroke:none;fill-rule:nonzero;fill-opacity:1;" d="M 58.121094 109.925781 L 59.464844 126.625 L 66.183594 126.625 L 64.839844 109.925781 L 66.183594 93.894531 L 59.464844 93.894531 L 58.121094 109.925781 M 68.871094 34.777344 L 70.214844 18.410156 L 68.871094 2.046875 L 62.152344 2.046875 L 63.832031 18.410156 L 62.488281 34.777344 L 68.871094 34.777344 M 110.53125 60.160156 L 94.402344 58.824219 L 94.402344 65.503906 L 110.53125 66.839844 L 127.664062 65.503906 L 127.664062 58.824219 L 110.53125 60.160156 M 83.316406 45.128906 C 77.941406 39.785156 71.445312 37.113281 63.832031 37.113281 C 56.441406 37.113281 50.058594 39.785156 44.683594 45.128906 C 39.308594 50.027344 36.621094 56.152344 36.621094 63.5 C 36.621094 71.292969 39.308594 77.75 44.683594 82.871094 C 50.058594 88.214844 56.441406 90.886719 63.832031 90.886719 C 71.445312 90.886719 77.941406 88.214844 83.316406 82.871094 C 88.691406 77.75 91.378906 71.292969 91.378906 63.5 C 91.378906 56.152344 88.691406 50.027344 83.316406 45.128906 M 64.167969 0.0429688 C 82.085938 0.0429688 97.09375 6.277344 109.1875 18.746094 C 121.730469 31.214844 128 46.019531 128 63.164062 C 128 80.980469 121.730469 96.121094 109.1875 108.589844 C 97.09375 120.835938 82.085938 126.957031 64.167969 126.957031 C 46.25 126.957031 31.242188 120.835938 19.148438 108.589844 C 6.382812 96.121094 0 80.980469 0 63.164062 L 0.335938 56.820312 L 0.335938 62.832031 L 17.46875 61.160156 L 33.933594 62.832031 L 33.933594 56.152344 L 17.46875 54.480469 L 0.335938 56.152344 C 2.574219 40.34375 9.742188 27.09375 21.835938 16.40625 C 33.484375 5.496094 47.59375 0.0429688 64.167969 0.0429688 "/>
</g>
</svg>
