<?xml version="1.0" encoding="UTF-8"?>
<svg xmlns="http://www.w3.org/2000/svg" xmlns:xlink="http://www.w3.org/1999/xlink" width="128pt" height="120pt" viewBox="0 0 128 120" version="1.1">
<g id="surface1">
<path style=" stroke:none;fill-rule:nonzero;fill-opacity:1;" d="M 94.382812 81.496094 L 83.070312 81.496094 L 83.070312 110.261719 L 94.382812 110.261719 L 94.382812 81.496094 M 86.949219 69.210938 L 86.949219 60.484375 L 81.777344 56.605469 L 76.28125 60.484375 L 76.28125 69.210938 L 86.949219 69.210938 M 109.898438 60.484375 L 109.898438 69.210938 L 120.566406 69.210938 L 120.566406 60.484375 L 115.070312 56.605469 L 109.898438 60.484375 M 117.011719 81.496094 L 105.695312 81.496094 L 105.695312 110.261719 L 117.011719 110.261719 L 117.011719 81.496094 M 30.707031 110.261719 L 42.019531 110.261719 L 42.019531 81.496094 L 30.707031 81.496094 L 30.707031 110.261719 M 54.625 100.890625 L 54.625 116.082031 L 72.082031 116.082031 L 72.082031 100.890625 L 63.03125 95.070312 L 54.625 100.890625 M 19.070312 81.496094 L 8.082031 81.496094 L 8.082031 110.261719 L 19.070312 110.261719 L 19.070312 81.496094 M 20.6875 69.210938 L 20.6875 60.484375 L 15.515625 56.605469 L 10.019531 60.484375 L 10.019531 69.210938 L 20.6875 69.210938 M 43.3125 60.484375 L 43.3125 69.210938 L 53.980469 69.210938 L 53.980469 60.484375 L 48.808594 56.605469 L 43.3125 60.484375 M 65.617188 0.0390625 L 65.617188 6.503906 L 70.464844 10.707031 L 70.464844 23.3125 L 74.988281 23.3125 L 74.988281 36.890625 L 78.222656 36.890625 L 78.222656 46.585938 L 121.859375 46.585938 L 121.859375 36.890625 L 128 36.890625 L 128 119.960938 L 0 119.960938 L 0 36.890625 L 6.464844 36.890625 L 6.464844 46.585938 L 49.777344 46.585938 L 49.777344 36.890625 L 53.332031 36.890625 L 53.332031 23.3125 L 57.859375 23.3125 L 57.859375 10.707031 L 59.152344 9.089844 L 62.382812 6.503906 L 62.382812 0.0390625 L 65.617188 0.0390625 "/>
</g>
</svg>
