<?xml version="1.0" encoding="UTF-8"?>
<svg xmlns="http://www.w3.org/2000/svg" xmlns:xlink="http://www.w3.org/1999/xlink" width="128pt" height="137pt" viewBox="0 0 128 137" version="1.1">
<g id="surface1">
<path style=" stroke:none;fill-rule:nonzero;fill-opacity:1;" d="M 87.523438 128.996094 L 89.945312 126.230469 L 90.636719 125.191406 C 93.175781 120.8125 96.980469 118.625 102.054688 118.625 C 105.28125 118.625 108.972656 120.8125 113.125 125.191406 L 116.929688 128.996094 L 128 128.996094 L 128 136.945312 L 116.582031 136.945312 C 113.585938 136.945312 110.011719 134.753906 105.859375 130.378906 L 101.707031 126.921875 C 101.015625 126.921875 100.324219 127.382812 99.632812 128.304688 L 98.59375 129.6875 L 97.902344 130.378906 C 95.828125 134.753906 92.253906 136.945312 87.179688 136.945312 C 84.179688 136.945312 80.722656 134.753906 76.800781 130.378906 L 72.648438 126.921875 C 71.957031 126.921875 71.148438 127.265625 70.226562 127.957031 L 69.1875 129.6875 L 68.84375 130.378906 C 66.074219 134.753906 62.5 136.945312 58.117188 136.945312 C 54.890625 136.945312 51.316406 134.753906 47.394531 130.378906 L 42.898438 126.921875 L 39.785156 129.6875 L 39.4375 130.378906 C 36.902344 134.753906 33.210938 136.945312 28.367188 136.945312 L 0 136.945312 L 0 128.996094 L 28.367188 128.996094 L 31.480469 126.230469 L 32.171875 125.191406 C 34.941406 120.8125 38.628906 118.625 43.242188 118.625 C 45.320312 118.625 47.394531 119.316406 49.46875 120.699219 L 54.3125 125.191406 L 58.117188 128.996094 L 60.539062 126.230469 L 61.234375 125.191406 C 64 120.8125 67.804688 118.625 72.648438 118.625 C 74.722656 118.625 76.800781 119.316406 78.875 120.699219 L 83.371094 125.191406 L 87.523438 128.996094 M 102.398438 0.746094 L 100.671875 5.929688 L 97.558594 10.769531 L 97.902344 16.300781 C 97.671875 20.21875 96.058594 25.75 93.058594 32.894531 L 84.066406 50.523438 L 79.566406 54.671875 L 76.800781 55.710938 L 61.578125 105.140625 C 65.269531 100.304688 68.957031 97.882812 72.648438 97.882812 C 76.109375 98.113281 79.683594 100.992188 83.371094 106.523438 L 94.441406 77.140625 C 100.671875 61.242188 105.511719 51.90625 108.972656 49.140625 L 120.734375 50.179688 L 126.960938 83.019531 L 126.960938 83.710938 L 119.351562 73.339844 L 112.085938 62.625 C 110.011719 67.464844 105.976562 80.023438 99.976562 100.304688 L 102.054688 99.957031 C 105.050781 99.957031 108.742188 102.144531 113.125 106.523438 L 116.929688 110.328125 L 128 110.328125 L 128 118.277344 L 116.582031 118.277344 C 113.816406 118.277344 110.242188 116.089844 105.859375 111.710938 L 101.707031 108.253906 C 101.015625 108.253906 100.324219 108.714844 99.632812 109.636719 L 98.59375 110.671875 L 97.902344 111.710938 C 95.597656 116.089844 92.023438 118.277344 87.179688 118.277344 C 84.410156 118.277344 80.953125 116.089844 76.800781 111.710938 L 72.648438 108.253906 C 71.265625 108.253906 70.113281 109.058594 69.1875 110.671875 L 68.84375 111.710938 C 65.84375 116.089844 62.269531 118.277344 58.117188 118.277344 C 55.351562 118.277344 51.777344 116.089844 47.394531 111.710938 L 42.898438 108.253906 C 41.976562 108.253906 40.9375 109.058594 39.785156 110.671875 L 39.4375 111.710938 C 36.671875 116.089844 32.980469 118.277344 28.367188 118.277344 L 27.328125 118.277344 L 27.328125 118.625 L 0 118.625 L 0 110.328125 L 10.722656 110.328125 L 9.339844 83.363281 C 8.878906 64.238281 10.722656 51.90625 14.875 46.375 C 13.953125 56.515625 14.53125 70.226562 16.605469 87.511719 L 20.066406 110.328125 L 24.90625 110.328125 L 26.292969 61.242188 L 32.519531 30.820312 L 35.285156 23.5625 L 33.558594 36.007812 C 31.941406 61.585938 32.75 83.710938 35.976562 102.375 L 37.707031 101.339844 L 38.054688 97.191406 C 40.128906 85.207031 43.128906 73.800781 47.046875 62.96875 C 43.359375 58.128906 44.859375 50.179688 51.546875 39.117188 L 57.082031 31.511719 C 59.15625 29.4375 61.234375 28.402344 63.308594 28.402344 L 65.382812 23.5625 L 66.765625 21.140625 L 68.496094 20.105469 L 69.1875 21.832031 L 67.804688 24.253906 L 65.039062 28.746094 C 66.421875 35.429688 64.921875 43.378906 60.539062 52.597656 L 56.390625 60.203125 C 54.542969 62.277344 52.121094 63.546875 49.125 64.007812 L 44.972656 81.636719 L 41.511719 100.304688 L 43.242188 99.957031 C 45.320312 99.957031 47.394531 100.648438 49.46875 102.03125 L 54.3125 106.523438 L 54.660156 107.214844 L 57.425781 108.253906 L 75.070312 53.636719 L 73.6875 51.5625 L 73.6875 46.375 C 80.605469 23.332031 87.984375 11.230469 95.828125 10.078125 L 98.25 4.894531 L 101.015625 0.0546875 L 101.015625 0.402344 L 102.398438 0.746094 "/>
</g>
</svg>
