<?xml version="1.0" encoding="UTF-8"?>
<svg xmlns="http://www.w3.org/2000/svg" xmlns:xlink="http://www.w3.org/1999/xlink" width="128pt" height="88pt" viewBox="0 0 128 88" version="1.1">
<g id="surface1">
<path style=" stroke:none;fill-rule:nonzero;fill-opacity:1;" d="M 33.28125 76.800781 L 33.28125 53.121094 L 27.519531 63.679688 L 23.039062 53.441406 L 23.039062 71.359375 L 33.28125 76.800781 M 6.398438 44.160156 C 6.398438 50.347656 8.425781 56 12.480469 61.121094 L 12.480469 26.878906 C 8.425781 32 6.398438 37.761719 6.398438 44.160156 M 58.878906 17.28125 L 48 17.28125 L 48 6.71875 L 45.121094 7.039062 L 45.121094 80.960938 L 58.878906 82.558594 L 58.878906 17.28125 M 21.121094 18.238281 L 27.519531 33.601562 L 33.921875 10.878906 L 21.121094 18.238281 M 105.28125 51.519531 L 94.398438 51.519531 L 94.398438 76.800781 L 105.28125 71.039062 L 105.28125 51.519531 M 115.519531 61.121094 C 119.359375 55.785156 121.28125 50.132812 121.28125 44.160156 C 121.28125 37.972656 119.359375 32.214844 115.519531 26.878906 L 115.519531 61.121094 M 81.28125 17.28125 L 70.398438 17.28125 L 70.398438 82.558594 L 84.480469 80.320312 L 84.480469 7.679688 L 81.28125 7.039062 L 81.28125 17.28125 M 94.398438 41.921875 L 105.28125 41.921875 L 105.28125 26.878906 L 94.398438 19.519531 L 94.398438 41.921875 M 64 0 C 81.492188 0 96.535156 4.265625 109.121094 12.800781 C 121.707031 21.546875 128 32 128 44.160156 C 128 56.105469 121.707031 66.453125 109.121094 75.199219 C 96.535156 83.734375 81.492188 88 64 88 C 46.292969 88 31.148438 83.734375 18.558594 75.199219 C 6.1875 66.453125 0 56.105469 0 44.160156 C 0 32 6.1875 21.546875 18.558594 12.800781 C 31.148438 4.265625 46.292969 0 64 0 "/>
</g>
</svg>
