<?xml version="1.0" encoding="UTF-8"?>
<svg xmlns="http://www.w3.org/2000/svg" xmlns:xlink="http://www.w3.org/1999/xlink" width="128pt" height="128pt" viewBox="0 0 128 128" version="1.1">
<g id="surface1">
<path style=" stroke:none;fill-rule:nonzero;fill-opacity:1;" d="M 66.34375 0.335938 L 66.34375 0 C 79.523438 0.671875 91.363281 4.804688 101.863281 12.398438 C 112.363281 20.214844 119.734375 30.15625 123.980469 42.21875 L 111.917969 42.21875 C 108.117188 33.953125 102.535156 27.03125 95.164062 21.445312 C 87.566406 16.082031 79.191406 12.84375 70.03125 11.726562 L 66.34375 0.335938 M 125.65625 46.574219 C 127.21875 52.160156 128 57.96875 128 64 C 128 74.050781 125.765625 83.546875 121.296875 92.480469 C 117.054688 101.195312 111.132812 108.566406 103.539062 114.597656 L 99.519531 102.535156 C 104.878906 97.84375 109.011719 92.148438 111.917969 85.445312 C 115.042969 78.742188 116.605469 71.59375 116.605469 64 L 115.601562 53.949219 L 125.65625 46.574219 M 123.980469 44.902344 L 86.785156 71.707031 L 101.195312 115.601562 L 64 88.460938 L 26.804688 115.601562 L 41.214844 71.707031 L 4.019531 44.902344 L 49.589844 44.902344 L 64 1.003906 L 78.410156 44.902344 L 123.980469 44.902344 M 89.464844 109.90625 L 99.519531 117.277344 C 88.796875 124.425781 76.957031 128 64 128 C 51.042969 128 39.203125 124.425781 28.480469 117.277344 L 38.535156 109.90625 C 46.574219 114.375 55.066406 116.605469 64 116.605469 C 72.933594 116.605469 81.425781 114.375 89.464844 109.90625 M 61.65625 0.335938 L 57.96875 11.726562 C 48.808594 12.84375 40.433594 16.082031 32.835938 21.445312 C 25.464844 27.03125 19.882812 33.953125 16.082031 42.21875 L 4.019531 42.21875 C 8.265625 30.15625 15.636719 20.214844 26.136719 12.398438 C 36.636719 4.804688 48.476562 0.671875 61.65625 0 L 61.65625 0.335938 M 12.398438 53.949219 L 11.394531 64 C 11.394531 71.59375 12.957031 78.742188 16.082031 85.445312 C 18.988281 92.148438 23.121094 97.84375 28.480469 102.535156 L 24.460938 114.597656 C 16.867188 108.566406 10.945312 101.195312 6.703125 92.480469 C 2.234375 83.546875 0 74.050781 0 64 C 0 57.96875 0.78125 52.160156 2.34375 46.574219 L 12.398438 53.949219 "/>
</g>
</svg>
