<?xml version="1.0" encoding="UTF-8"?>
<svg xmlns="http://www.w3.org/2000/svg" xmlns:xlink="http://www.w3.org/1999/xlink" width="128pt" height="118pt" viewBox="0 0 128 118" version="1.1">
<g id="surface1">
<path style=" stroke:none;fill-rule:nonzero;fill-opacity:1;" d="M 128 21.425781 L 112.160156 36.972656 L 105.375 30.171875 L 75.3125 60.296875 L 106.667969 91.390625 L 109.253906 88.800781 L 123.796875 103.375 L 110.222656 117.304688 L 95.675781 102.730469 L 98.261719 99.8125 L 66.910156 68.394531 L 50.746094 84.589844 L 65.617188 99.488281 L 65.9375 99.488281 L 57.535156 107.910156 C 51.070312 113.308594 45.253906 116.332031 40.082031 116.980469 L 13.574219 117.953125 L 10.34375 117.953125 L 10.34375 114.714844 L 11.3125 88.152344 C 11.960938 83.1875 15.085938 77.355469 20.6875 70.660156 L 28.769531 62.238281 L 28.769531 62.5625 L 43.636719 77.140625 L 59.796875 61.265625 L 32 33.410156 L 1.9375 69.367188 L 0 67.746094 L 5.171875 53.816406 C 10.128906 42.804688 16.054688 32.980469 22.949219 24.339844 L 17.777344 19.480469 L 26.183594 11.058594 L 30.707031 15.59375 C 37.386719 9.117188 43.960938 4.257812 50.425781 1.019531 L 59.476562 9.765625 L 40.402344 24.988281 L 68.203125 52.84375 L 98.261719 22.722656 L 91.152344 15.59375 L 106.667969 0.046875 L 128 21.425781 M 106.667969 9.117188 L 100.203125 15.59375 L 112.160156 28.226562 L 118.949219 21.425781 L 106.667969 9.117188 "/>
</g>
</svg>
