<?xml version="1.0" encoding="UTF-8"?>
<svg xmlns="http://www.w3.org/2000/svg" xmlns:xlink="http://www.w3.org/1999/xlink" width="128pt" height="128pt" viewBox="0 0 128 128" version="1.1">
<g id="surface1">
<path style=" stroke:none;fill-rule:nonzero;fill-opacity:1;" d="M 85.09375 33.964844 L 85.09375 110.839844 L 99.753906 110.839844 L 99.753906 33.964844 L 85.09375 33.964844 M 128 30.390625 L 123.710938 30.390625 L 123.710938 33.964844 L 111.910156 33.964844 L 111.910156 110.839844 L 121.207031 110.839844 L 121.207031 116.917969 L 123.710938 116.917969 L 123.710938 122.636719 L 128 122.636719 L 128 128 L 0 128 L 0 122.636719 L 3.574219 122.636719 L 3.574219 116.917969 L 6.4375 116.917969 L 6.4375 110.839844 L 16.089844 110.839844 L 16.089844 33.964844 L 3.574219 33.964844 L 3.574219 30.390625 L 0 30.390625 L 0 25.742188 L 63.640625 0 L 128 25.742188 L 128 30.390625 M 72.222656 33.964844 L 56.132812 33.964844 L 56.132812 110.839844 L 72.222656 110.839844 L 72.222656 33.964844 M 27.886719 33.964844 L 27.886719 110.839844 L 42.90625 110.839844 L 42.90625 33.964844 L 27.886719 33.964844 "/>
</g>
</svg>
