<?xml version="1.0" encoding="UTF-8"?>
<svg xmlns="http://www.w3.org/2000/svg" xmlns:xlink="http://www.w3.org/1999/xlink" width="127pt" height="91pt" viewBox="0 0 127 91" version="1.1">
<g id="surface1">
<path style=" stroke:none;fill-rule:nonzero;fill-opacity:1;" d="M 100.382812 77.734375 L 97.175781 79.347656 L 95.890625 80.957031 L 95.570312 81.925781 C 92.148438 87.941406 87.339844 90.949219 81.140625 90.949219 C 78.785156 90.949219 76.328125 90.089844 73.761719 88.371094 L 67.347656 82.570312 L 61.894531 77.734375 C 60.1875 77.734375 58.6875 78.808594 57.40625 80.957031 L 57.085938 81.925781 C 53.878906 87.941406 49.175781 90.949219 42.976562 90.949219 C 40.410156 90.949219 37.84375 90.089844 35.277344 88.371094 L 29.183594 82.570312 L 23.730469 77.734375 C 21.808594 77.734375 20.3125 78.808594 19.242188 80.957031 L 18.601562 81.925781 L 14.109375 87.40625 C 11.332031 89.769531 8.125 90.949219 4.488281 90.949219 L 0 90.949219 L 0 80.3125 L 4.488281 80.3125 L 8.339844 77.089844 L 9.300781 75.15625 C 12.722656 69.785156 17.53125 67.097656 23.730469 67.097656 C 26.511719 67.097656 29.183594 67.957031 31.75 69.675781 L 38.164062 75.476562 L 43.296875 79.992188 L 46.503906 76.769531 L 47.464844 75.476562 C 50.886719 69.890625 55.804688 67.097656 62.21875 67.097656 L 69.914062 69.675781 L 76.328125 75.476562 L 81.460938 79.992188 L 84.988281 77.089844 L 85.949219 75.476562 C 89.15625 69.890625 93.96875 67.097656 100.382812 67.097656 L 108.398438 69.675781 L 114.8125 75.476562 L 119.945312 80.3125 L 124.113281 80.3125 L 124.113281 90.949219 L 119.625 90.949219 C 117.058594 90.949219 114.492188 90.089844 111.925781 88.371094 L 105.511719 82.570312 L 100.382812 77.734375 M 100.382812 42.277344 L 108.398438 44.855469 L 114.8125 50.980469 L 119.945312 55.492188 L 124.113281 55.492188 L 124.113281 66.128906 L 119.625 66.128906 C 115.773438 66.128906 111.070312 63.335938 105.511719 57.75 L 100.382812 52.914062 C 99.3125 52.914062 98.242188 53.558594 97.175781 54.847656 L 95.890625 56.460938 L 95.570312 57.425781 C 91.9375 63.230469 87.125 66.128906 81.140625 66.128906 C 77.289062 66.128906 72.695312 63.335938 67.347656 57.75 L 61.894531 52.914062 C 60.1875 52.914062 58.6875 54.097656 57.40625 56.460938 L 57.085938 57.425781 C 53.453125 63.230469 48.746094 66.128906 42.976562 66.128906 C 40.410156 66.128906 37.84375 65.269531 35.277344 63.550781 L 29.183594 57.75 L 23.730469 52.914062 C 21.808594 52.914062 20.3125 54.097656 19.242188 56.460938 L 18.601562 57.425781 C 15.609375 63.230469 10.902344 66.128906 4.488281 66.128906 L 0 66.128906 L 0 55.492188 L 4.488281 55.492188 C 5.988281 55.492188 7.269531 54.417969 8.339844 52.269531 L 9.300781 50.65625 C 12.933594 45.070312 17.746094 42.277344 23.730469 42.277344 C 26.511719 42.277344 29.183594 43.136719 31.75 44.855469 L 38.164062 50.980469 L 43.296875 55.492188 L 46.503906 52.269531 L 47.464844 50.65625 C 50.886719 45.070312 55.804688 42.277344 62.21875 42.277344 L 69.914062 44.855469 L 76.328125 50.980469 L 81.460938 55.492188 L 84.988281 52.269531 L 85.949219 50.65625 C 89.371094 45.070312 94.179688 42.277344 100.382812 42.277344 M 83.703125 10.042969 L 83.703125 43.242188 L 80.496094 46.789062 L 75.367188 41.953125 L 73.761719 40.34375 L 73.761719 10.042969 L 54.199219 10.042969 L 54.199219 34.863281 L 46.183594 41.953125 L 45.539062 43.242188 L 43.9375 45.175781 L 43.9375 10.042969 L 24.375 10.042969 L 24.375 33.574219 L 22.449219 33.25 L 14.433594 35.507812 L 14.433594 10.042969 L 2.566406 10.042969 L 2.566406 0.0507812 L 127 0.0507812 L 127 10.042969 L 113.210938 10.042969 L 113.210938 41.632812 L 103.269531 34.21875 L 103.269531 10.042969 L 83.703125 10.042969 "/>
</g>
</svg>
