<?xml version="1.0" encoding="UTF-8"?>
<svg xmlns="http://www.w3.org/2000/svg" xmlns:xlink="http://www.w3.org/1999/xlink" width="128pt" height="128pt" viewBox="0 0 128 128" version="1.1">
<g id="surface1">
<path style=" stroke:none;fill-rule:nonzero;fill-opacity:1;" d="M 122.503906 18.425781 L 103.757812 38.789062 L 107.960938 116.039062 L 95.03125 128 L 78.546875 73.050781 C 77.46875 70.464844 76.066406 69.171875 74.34375 69.171875 C 73.050781 68.742188 71.328125 69.496094 69.171875 71.433594 L 42.667969 95.355469 L 42.988281 112.484375 L 33.292969 121.859375 L 27.476562 106.34375 C 21.441406 110.652344 17.886719 112.378906 16.808594 111.515625 L 16.484375 110.867188 L 18.425781 105.375 L 21.65625 100.523438 L 6.140625 94.382812 L 15.515625 85.011719 L 32.644531 85.332031 L 56.566406 58.503906 C 58.503906 56.351562 59.257812 54.625 58.828125 53.332031 C 58.828125 52.039062 57.535156 50.746094 54.949219 49.453125 L 25.535156 40.402344 L 0 32.96875 L 11.960938 20.039062 L 88.890625 24.242188 C 97.078125 15.621094 103.867188 9.375 109.253906 5.496094 C 112.699219 3.125 116.792969 1.507812 121.535156 0.644531 L 127.675781 0 L 128 0.324219 L 127.355469 6.464844 C 126.492188 10.988281 124.875 14.976562 122.503906 18.425781 "/>
</g>
</svg>
