<?xml version="1.0" encoding="UTF-8"?>
<svg xmlns="http://www.w3.org/2000/svg" xmlns:xlink="http://www.w3.org/1999/xlink" width="128pt" height="131pt" viewBox="0 0 128 131" version="1.1">
<g id="surface1">
<path style=" stroke:none;fill-rule:nonzero;fill-opacity:1;" d="M 102.460938 48.953125 L 73.140625 48.261719 L 63.484375 20.339844 L 54.167969 48.261719 L 24.851562 48.953125 L 48.304688 66.191406 L 39.335938 94.800781 L 63.484375 77.566406 L 87.628906 94.800781 L 79.003906 66.191406 L 102.460938 48.953125 M 120.050781 24.820312 C 114.53125 33.554688 111.773438 42.632812 111.773438 52.054688 C 111.773438 61.476562 113.84375 69.523438 117.980469 76.1875 C 120.050781 79.863281 122.351562 82.390625 124.878906 83.769531 L 119.707031 94.113281 C 114.648438 102.15625 107.402344 109.050781 97.976562 114.796875 C 86.476562 121.691406 74.980469 127.09375 63.484375 131 L 52.789062 126.863281 L 29.679688 114.796875 C 20.023438 109.050781 13.007812 102.15625 8.640625 94.113281 L 3.808594 83.769531 C 6.109375 82.390625 8.179688 79.863281 10.019531 76.1875 C 13.699219 69.523438 15.539062 61.476562 15.539062 52.054688 C 15.539062 42.632812 13.125 33.554688 8.292969 24.820312 L 0.015625 14.132812 L 11.398438 0 L 16.574219 7.238281 C 22.320312 11.835938 29.21875 14.132812 37.269531 14.132812 C 43.015625 14.132812 49.109375 12.640625 55.550781 9.652344 C 58.769531 8.273438 61.414062 6.78125 63.484375 5.171875 L 71.761719 9.652344 C 78.429688 12.640625 84.636719 14.132812 90.386719 14.132812 C 98.207031 14.132812 104.988281 11.835938 110.738281 7.238281 L 116.945312 0 L 127.984375 14.132812 L 120.050781 24.820312 "/>
</g>
</svg>
