<?xml version="1.0" encoding="UTF-8"?>
<svg xmlns="http://www.w3.org/2000/svg" xmlns:xlink="http://www.w3.org/1999/xlink" width="128pt" height="197pt" viewBox="0 0 128 197" version="1.1">
<g id="surface1">
<path style=" stroke:none;fill-rule:nonzero;fill-opacity:1;" d="M 21.5 182.574219 L 22.5 183.070312 L 55.5 183.070312 L 31 158.195312 L 21.5 182.574219 M 19.5 188.542969 L 18 193.019531 L 42.5 187.546875 L 21.5 187.546875 L 19.5 188.542969 M 56 149.738281 L 43 125.859375 L 34 149.738281 L 56 149.738281 M 46.5 116.90625 L 57.5 116.90625 L 54 97.007812 L 46.5 116.90625 M 49.5 121.882812 L 63.5 149.242188 L 79.5 121.882812 L 49.5 121.882812 M 11 81.585938 L 10.5 81.089844 L 10.5 79.597656 L 28.5 62.183594 L 23 61.1875 L 22 60.691406 L 22.5 59.199219 L 48.5 39.300781 L 50 39.796875 L 50 41.289062 L 34.5 57.707031 L 40.5 58.703125 L 41 59.199219 L 41 60.195312 L 23 78.105469 L 30.5 79.097656 L 31.5 80.09375 L 31.5 81.089844 L 1.5 110.9375 L 0 110.9375 L 0 109.445312 L 19.5 83.078125 L 11 81.585938 M 19.5 36.8125 L 19 35.320312 L 20 34.824219 L 33.5 34.824219 L 31.5 31.839844 L 31.5 30.84375 L 32.5 30.347656 L 51.5 32.832031 L 52.5 33.828125 L 51.5 34.824219 L 39.5 35.320312 L 42 38.804688 L 42 39.796875 L 41 40.792969 L 27.5 40.792969 L 30.5 44.773438 L 30.5 45.769531 L 30 46.761719 L 5.5 47.261719 L 4.5 46.265625 L 5 45.269531 L 22.5 41.289062 L 19.5 36.8125 M 29.5 4.476562 L 30.5 3.480469 L 31.5 3.480469 L 41 12.933594 L 41.5 9.453125 L 42.5 8.457031 L 43.5 8.953125 L 55.5 24.375 L 55.5 25.867188 L 54 25.867188 L 45 17.910156 L 43.5 22.882812 L 42.5 22.386719 L 33 12.933594 L 32 17.910156 L 31.5 18.902344 L 30 18.40625 L 12.5 1.988281 L 12.5 0.496094 L 14 0.496094 L 29 9.949219 L 29.5 4.476562 M 64 181.578125 L 91.5 154.714844 L 37.5 154.714844 L 64 181.578125 M 84.5 187.546875 L 110 193.019531 L 108.5 188.542969 L 106.5 187.546875 L 84.5 187.546875 M 105.5 183.070312 L 106.5 182.574219 L 97.5 158.695312 L 73 183.070312 L 105.5 183.070312 M 71 116.90625 L 81.5 116.90625 L 75 98.003906 L 71 116.90625 M 94 149.738281 L 85.5 126.359375 L 72 149.738281 L 94 149.738281 M 68.5 89.546875 L 67.5 89.046875 L 61.5 89.046875 L 60 89.546875 L 64.5 111.433594 L 68.5 89.546875 M 69.5 84.074219 L 64 69.644531 L 58.5 84.074219 L 69.5 84.074219 M 106 60.691406 L 105 61.1875 L 99.5 62.183594 L 117.5 79.597656 L 117.5 81.089844 L 117 81.585938 L 108.5 83.078125 L 128 109.445312 L 128 110.9375 L 126.5 110.9375 L 96.5 81.089844 L 96.5 80.09375 L 97.5 79.097656 L 105 78.105469 L 87 60.195312 L 87 59.199219 L 87.5 58.703125 L 93.5 57.707031 L 78 41.289062 L 78 39.796875 L 79.5 39.300781 L 105.5 59.199219 L 106 60.691406 M 64 33.332031 L 66.5 36.316406 L 66.5 59.199219 L 69 60.691406 L 119.5 197 L 99.5 197 L 63.5 187.546875 L 58.5 188.542969 L 29.5 197 L 8.5 197 L 59 60.691406 L 61.5 59.199219 L 61.5 36.316406 L 64 33.332031 M 75.5 33.828125 L 76.5 32.832031 L 95.5 30.347656 L 96.5 30.84375 L 96.5 31.839844 L 94.5 34.824219 L 108 34.824219 L 109 35.320312 L 108.5 36.8125 L 105.5 41.289062 L 123 45.269531 L 123.5 46.265625 L 122.5 47.261719 L 98 46.761719 L 97.5 45.769531 L 97.5 44.773438 L 100.5 40.792969 L 87 40.792969 L 86 39.796875 L 86 38.804688 L 88.5 35.320312 L 76.5 34.824219 L 75.5 33.828125 M 115.5 0.496094 L 115.5 1.988281 L 97.5 18.40625 L 96.5 18.902344 L 95.5 17.910156 L 95 12.4375 L 85.5 21.890625 L 84 22.386719 L 83.5 21.390625 L 83 17.410156 L 74 25.867188 L 72.5 25.867188 C 71.5 25.207031 71.332031 24.707031 72 24.375 L 84 8.953125 L 85.5 8.457031 L 86 9.453125 L 86.5 12.933594 L 96 3.480469 L 97.5 3.480469 L 98 3.980469 L 99 9.949219 L 114 0 L 115.5 0.496094 "/>
</g>
</svg>
