<?xml version="1.0" encoding="UTF-8"?>
<svg xmlns="http://www.w3.org/2000/svg" xmlns:xlink="http://www.w3.org/1999/xlink" width="128pt" height="127pt" viewBox="0 0 128 127" version="1.1">
<g id="surface1">
<path style=" stroke:none;fill-rule:nonzero;fill-opacity:1;" d="M 42.019531 102.863281 L 56.890625 76.835938 L 64 78.761719 L 71.109375 77.15625 L 85.980469 102.863281 C 79.085938 106.71875 71.757812 108.648438 64 108.648438 C 56.242188 108.648438 48.914062 106.71875 42.019531 102.863281 M 24.566406 40.523438 C 28.445312 33.667969 33.722656 28.207031 40.402344 24.136719 L 56.566406 52.09375 C 52.039062 54.878906 49.777344 58.949219 49.777344 64.304688 L 49.777344 64.625 L 18.101562 64.625 L 18.101562 63.019531 C 18.101562 54.878906 20.257812 47.378906 24.566406 40.523438 M 64 0.0351562 C 81.671875 0.0351562 96.753906 6.25 109.253906 18.671875 C 121.75 30.882812 128 45.773438 128 63.339844 C 128 80.90625 121.75 95.902344 109.253906 108.328125 C 96.753906 120.75 81.671875 126.964844 64 126.964844 C 46.328125 126.964844 31.246094 120.75 18.746094 108.328125 C 6.25 95.902344 0 80.90625 0 63.339844 C 0 45.773438 6.25 30.882812 18.746094 18.671875 C 31.246094 6.25 46.328125 0.0351562 64 0.0351562 M 103.433594 24.457031 C 92.445312 13.53125 79.300781 8.070312 64 8.070312 C 48.699219 8.070312 35.554688 13.53125 24.566406 24.457031 C 13.792969 35.167969 8.402344 48.128906 8.402344 63.339844 C 8.402344 78.550781 13.792969 91.617188 24.566406 102.542969 C 35.554688 113.253906 48.699219 118.609375 64 118.609375 C 79.300781 118.609375 92.445312 113.253906 103.433594 102.542969 C 114.207031 91.617188 119.597656 78.550781 119.597656 63.339844 C 119.597656 48.128906 114.207031 35.167969 103.433594 24.457031 M 87.597656 24.136719 C 94.277344 28.207031 99.664062 33.667969 103.757812 40.523438 C 107.851562 47.378906 109.898438 54.878906 109.898438 63.019531 L 109.898438 64.625 L 78.546875 64.625 L 78.546875 64.304688 C 78.546875 58.949219 76.175781 54.878906 71.433594 52.09375 L 87.597656 24.136719 M 64 55.628906 C 66.371094 55.628906 68.417969 56.484375 70.140625 58.199219 C 72.082031 59.910156 73.050781 62.054688 73.050781 64.625 L 70.140625 70.730469 C 68.417969 72.445312 66.371094 73.300781 64 73.300781 C 61.628906 73.300781 59.582031 72.445312 57.859375 70.730469 L 54.949219 64.625 C 54.949219 62.054688 55.917969 59.910156 57.859375 58.199219 C 59.582031 56.484375 61.628906 55.628906 64 55.628906 "/>
</g>
</svg>
