<?xml version="1.0" encoding="UTF-8"?>
<svg xmlns="http://www.w3.org/2000/svg" xmlns:xlink="http://www.w3.org/1999/xlink" width="127pt" height="103pt" viewBox="0 0 127 103" version="1.1">
<g id="surface1">
<path style=" stroke:none;fill-rule:nonzero;fill-opacity:1;" d="M 69.730469 78.933594 L 69.730469 59.96875 L 12.464844 59.96875 L 12.464844 78.933594 L 69.730469 78.933594 M 113.863281 59.96875 L 85.226562 59.96875 L 85.226562 78.933594 L 113.863281 78.933594 L 113.863281 59.96875 M 127 45.402344 L 127 54.546875 L 121.273438 54.546875 L 121.273438 102.984375 L 77.144531 102.984375 L 77.144531 91.464844 L 48.171875 91.464844 L 48.171875 102.984375 L 5.390625 102.984375 L 5.390625 54.546875 L 0 54.546875 L 0 45.402344 L 127 45.402344 "/>
<path style=" stroke:none;fill-rule:nonzero;fill-opacity:1;" d="M 109.820312 5.097656 L 104.429688 5.097656 L 104.429688 0.015625 L 111.839844 0.015625 L 111.839844 45.402344 L 104.429688 45.402344 L 104.429688 24.402344 L 109.820312 24.402344 L 109.820312 16.613281 L 104.429688 16.613281 L 104.429688 12.886719 L 109.820312 12.886719 L 109.820312 5.097656 "/>
</g>
</svg>
