<?xml version="1.0" encoding="UTF-8"?>
<svg xmlns="http://www.w3.org/2000/svg" xmlns:xlink="http://www.w3.org/1999/xlink" width="128pt" height="128pt" viewBox="0 0 128 128" version="1.1">
<g id="surface1">
<path style=" stroke:none;fill-rule:nonzero;fill-opacity:1;" d="M 126.402344 1.914062 C 127.46875 3.40625 123.210938 11.066406 113.636719 24.898438 C 103.421875 39.582031 93.953125 50.859375 85.226562 58.734375 L 71.820312 70.222656 C 58.199219 83.207031 54.265625 96.503906 60.011719 110.125 L 64.796875 105.65625 L 75.96875 98.953125 C 74.054688 104.484375 70.117188 110.230469 64.160156 116.191406 C 57.988281 122.574219 52.242188 126.402344 46.921875 127.679688 L 46.285156 128 L 46.285156 127.679688 C 47.136719 124.703125 50.433594 119.914062 56.179688 113.316406 L 45.007812 88.101562 L 40.859375 88.417969 L 39.582031 87.460938 L 39.261719 84.589844 L 39.898438 83.3125 L 14.683594 71.820312 C 8.085938 77.777344 3.191406 81.183594 0 82.035156 C 1.488281 76.503906 5.425781 70.542969 11.808594 64.160156 C 17.980469 58.414062 23.726562 54.476562 29.046875 52.347656 C 27.558594 55.964844 25.429688 59.691406 22.664062 63.519531 L 18.195312 68.308594 C 31.386719 74.054688 44.6875 70.117188 58.09375 56.5 L 69.265625 43.09375 C 77.140625 34.367188 88.417969 24.898438 103.101562 14.683594 C 117.148438 4.894531 124.914062 0.636719 126.402344 1.914062 "/>
</g>
</svg>
