<?xml version="1.0" encoding="UTF-8"?>
<svg xmlns="http://www.w3.org/2000/svg" xmlns:xlink="http://www.w3.org/1999/xlink" width="128pt" height="172pt" viewBox="0 0 128 172" version="1.1">
<g id="surface1">
<path style=" stroke:none;fill-rule:nonzero;fill-opacity:1;" d="M 39.941406 49.359375 L 39.488281 52.976562 L 40.851562 52.070312 L 41.304688 54.332031 L 38.582031 58.859375 L 39.941406 60.667969 L 43.121094 65.191406 L 44.9375 71.976562 L 49.476562 60.667969 L 43.121094 47.097656 L 39.941406 49.359375 M 72.171875 119.476562 L 68.539062 95.046875 L 58.097656 117.667969 L 56.738281 129.878906 L 52.199219 142.09375 L 51.746094 151.59375 L 50.382812 155.214844 L 71.261719 154.308594 L 69.902344 140.738281 L 69.902344 124 L 72.171875 119.476562 M 71.261719 3.667969 L 73.53125 9.546875 L 73.984375 14.523438 L 72.625 18.597656 L 69.902344 18.597656 L 68.539062 19.5 C 67.328125 21.007812 67.78125 22.214844 69.902344 23.121094 L 78.523438 26.285156 L 83.0625 29.90625 L 97.589844 12.261719 L 98.949219 11.359375 C 99.859375 11.359375 100.765625 11.960938 101.671875 13.167969 L 86.695312 33.523438 L 87.148438 44.832031 L 86.695312 49.359375 L 86.695312 52.070312 L 87.148438 56.59375 L 87.148438 71.070312 L 88.058594 73.332031 L 90.78125 75.59375 L 96.226562 84.644531 L 93.050781 84.644531 L 89.417969 86.453125 L 87.148438 94.144531 L 84.425781 117.667969 L 82.15625 140.738281 L 81.25 152.5 L 94.410156 156.570312 C 111.960938 160.492188 123.160156 165.617188 128 171.949219 L 0 171.949219 C 5.75 164.714844 18.609375 159.585938 38.582031 156.570312 L 38.582031 152.5 L 43.121094 144.808594 L 42.210938 119.023438 L 44.9375 115.40625 L 44.9375 90.523438 L 40.851562 91.429688 L 29.050781 117.667969 C 23.300781 117.667969 21.332031 115.40625 23.148438 110.878906 L 34.949219 91.429688 L 38.582031 81.929688 L 43.574219 79.667969 L 43.574219 76.953125 L 32.679688 66.546875 L 29.957031 60.667969 L 29.957031 58.859375 L 24.511719 55.691406 L 23.148438 48.453125 L 29.957031 45.738281 L 32.679688 36.238281 L 36.3125 31.714844 L 39.941406 28.097656 L 50.382812 25.382812 C 54.015625 24.777344 55.828125 24.023438 55.828125 23.121094 L 56.738281 21.761719 C 54.921875 21.761719 53.710938 21.007812 53.105469 19.5 L 49.476562 17.238281 C 47.960938 16.335938 47.960938 15.429688 49.476562 14.523438 L 52.199219 10 L 54.015625 5.929688 L 56.738281 1.40625 L 62.636719 0.0507812 C 66.875 0.0507812 69.75 1.253906 71.261719 3.667969 "/>
</g>
</svg>
