<?xml version="1.0" encoding="UTF-8"?>
<svg xmlns="http://www.w3.org/2000/svg" xmlns:xlink="http://www.w3.org/1999/xlink" width="128pt" height="159pt" viewBox="0 0 128 159" version="1.1">
<g id="surface1">
<path style=" stroke:none;fill-rule:nonzero;fill-opacity:1;" d="M 48.460938 107.605469 C 43.347656 109.480469 40.519531 112.425781 39.984375 116.4375 L 39.984375 152.175781 L 87.613281 152.175781 L 87.613281 116.4375 C 87.34375 112.425781 84.519531 109.480469 79.136719 107.605469 L 63.796875 105.597656 L 48.460938 107.605469 M 62.992188 53.402344 L 63.394531 52.195312 L 63.394531 53.402344 L 62.992188 53.402344 M 64.605469 31.316406 L 65.414062 31.71875 L 64.605469 32.925781 L 64.203125 33.324219 L 65.414062 33.324219 L 65.414062 34.53125 L 66.625 34.53125 L 66.625 36.9375 L 67.027344 37.742188 L 67.429688 37.742188 L 68.640625 39.75 L 70.257812 44.167969 L 70.660156 44.566406 L 70.660156 44.96875 L 71.871094 46.175781 L 72.273438 47.78125 L 64.203125 47.78125 L 64.203125 51.394531 L 63.394531 52.195312 L 62.992188 51.394531 L 62.992188 47.78125 L 55.726562 47.78125 L 55.726562 46.175781 L 57.339844 44.167969 L 57.339844 43.765625 L 58.953125 39.75 L 60.570312 37.742188 L 60.972656 37.339844 L 60.972656 34.53125 L 62.183594 34.53125 L 62.183594 33.324219 L 62.992188 33.324219 L 62.992188 32.925781 L 62.183594 32.121094 L 62.183594 31.71875 L 62.585938 31.71875 L 62.585938 31.316406 L 52.09375 31.316406 L 52.09375 73.074219 L 75.503906 73.074219 L 75.503906 31.316406 L 64.605469 31.316406 M 64.203125 0 C 69.582031 0 74.964844 7.496094 80.347656 22.484375 C 81.960938 27.035156 85.863281 30.113281 92.054688 31.71875 L 87.613281 34.933594 L 87.613281 71.46875 L 92.457031 76.6875 L 92.457031 85.523438 L 127.976562 112.824219 L 126.363281 116.039062 L 119.90625 116.039062 L 119.90625 159 L 8.09375 159 L 8.09375 116.039062 L 1.636719 116.039062 L 0.0234375 112.824219 L 35.140625 85.523438 L 35.140625 76.6875 L 39.984375 71.46875 L 39.984375 34.933594 L 35.542969 31.71875 C 41.730469 30.113281 45.632812 27.035156 47.25 22.484375 L 53.304688 8.832031 C 56.53125 2.945312 59.894531 0 63.394531 0 L 64.203125 0 "/>
</g>
</svg>
