<?xml version="1.0" encoding="UTF-8"?>
<svg xmlns="http://www.w3.org/2000/svg" xmlns:xlink="http://www.w3.org/1999/xlink" width="128pt" height="114pt" viewBox="0 0 128 114" version="1.1">
<g id="surface1">
<path style=" stroke:none;fill-rule:nonzero;fill-opacity:1;" d="M 19.726562 104.285156 L 19.082031 105.253906 C 15.851562 111.085938 11.003906 114 4.539062 114 L 0.015625 114 L 0.015625 103.3125 L 4.539062 103.3125 C 6.261719 103.3125 7.554688 102.234375 8.417969 100.074219 L 9.386719 98.453125 C 13.050781 92.625 18.113281 89.710938 24.574219 89.710938 C 27.160156 89.710938 29.851562 90.574219 32.652344 92.300781 L 39.117188 98.453125 L 44.289062 103.3125 C 46.011719 102.878906 47.195312 101.800781 47.84375 100.074219 L 48.8125 98.453125 C 52.691406 92.625 57.644531 89.710938 63.675781 89.710938 L 72.078125 92.300781 L 78.542969 98.453125 L 83.710938 103.3125 L 86.945312 100.074219 L 87.914062 98.453125 C 91.574219 92.625 96.636719 89.710938 103.101562 89.710938 L 111.179688 92.300781 L 117.644531 98.453125 L 123.136719 103.3125 L 127.339844 103.3125 L 127.339844 114 L 122.8125 114 C 118.71875 114 113.875 111.191406 108.273438 105.578125 L 102.777344 100.398438 L 99.546875 102.339844 L 98.253906 104.285156 L 97.929688 105.253906 C 94.054688 111.085938 89.207031 114 83.390625 114 C 80.804688 114 78.21875 113.136719 75.632812 111.410156 L 69.171875 105.578125 L 63.675781 100.398438 C 61.738281 100.613281 60.230469 101.910156 59.152344 104.285156 L 58.507812 105.253906 C 55.273438 111.085938 50.425781 114 43.964844 114 C 40.085938 114 35.347656 111.191406 29.746094 105.578125 L 24.253906 100.398438 C 22.527344 100.613281 21.019531 101.910156 19.726562 104.285156 M 48.8125 73.191406 C 52.691406 67.363281 57.644531 64.449219 63.675781 64.449219 L 72.078125 67.039062 L 78.542969 73.191406 L 83.710938 78.050781 L 86.945312 74.8125 L 87.914062 73.191406 C 91.574219 67.363281 96.636719 64.449219 103.101562 64.449219 L 111.179688 67.039062 L 117.644531 73.191406 L 123.136719 78.050781 L 127.339844 78.050781 L 127.339844 89.0625 L 122.8125 89.0625 C 120.011719 89.0625 117.320312 88.089844 114.734375 86.148438 L 108.273438 80.316406 L 102.777344 75.460938 C 101.703125 75.460938 100.625 76 99.546875 77.078125 L 98.253906 79.023438 L 97.929688 79.996094 C 94.054688 86.039062 89.207031 89.0625 83.390625 89.0625 C 80.804688 89.0625 78.21875 88.089844 75.632812 86.148438 L 69.171875 80.316406 L 63.675781 75.460938 C 62.167969 75.460938 60.660156 76.648438 59.152344 79.023438 L 58.507812 79.996094 C 55.058594 86.039062 50.210938 89.0625 43.964844 89.0625 C 41.378906 89.0625 38.792969 88.089844 36.207031 86.148438 L 29.746094 80.316406 C 26.945312 77.296875 25.113281 75.675781 24.253906 75.460938 C 22.742188 75.460938 21.234375 76.648438 19.726562 79.023438 L 19.082031 79.996094 C 15.632812 86.039062 10.789062 89.0625 4.539062 89.0625 L 0.015625 89.0625 L 0.015625 78.050781 L 4.539062 78.050781 L 8.417969 74.8125 L 9.386719 73.191406 C 13.050781 67.363281 18.113281 64.449219 24.574219 64.449219 C 27.160156 64.449219 29.851562 65.3125 32.652344 67.039062 L 39.117188 73.191406 L 44.289062 78.050781 C 45.796875 77.835938 46.980469 76.753906 47.84375 74.8125 L 48.8125 73.191406 M 61.414062 44.046875 L 59.800781 39.835938 C 58.507812 38.539062 57 37.890625 55.273438 37.890625 L 50.75 39.835938 L 48.8125 44.046875 L 50.75 48.578125 C 52.042969 49.875 53.550781 50.523438 55.273438 50.523438 C 57 50.523438 58.507812 49.875 59.800781 48.578125 L 61.414062 44.046875 M 41.054688 48.578125 C 42.347656 47.285156 42.996094 45.773438 42.996094 44.046875 L 41.054688 39.835938 L 36.53125 37.890625 C 34.808594 37.890625 33.40625 38.539062 32.332031 39.835938 L 30.390625 44.046875 L 32.332031 48.578125 C 33.40625 49.875 34.808594 50.523438 36.53125 50.523438 C 38.253906 50.523438 39.761719 49.875 41.054688 48.578125 M 92.761719 34.976562 L 127.984375 34.976562 L 109.242188 57.324219 L 101.164062 54.410156 C 94.914062 54.410156 89.851562 57.324219 85.972656 63.152344 L 85.328125 64.773438 L 81.773438 68.011719 L 76.601562 63.152344 L 70.140625 57.324219 L 61.738281 54.410156 C 55.273438 54.410156 50.320312 57.324219 46.871094 63.152344 L 45.902344 64.773438 L 42.671875 68.011719 L 37.179688 63.152344 L 30.714844 57.324219 L 22.636719 54.410156 C 18.757812 54.410156 15.203125 55.703125 11.972656 58.296875 L 6.15625 35.300781 L 21.988281 35.300781 L 21.667969 22.347656 L 19.082031 21.375 L 18.757812 21.699219 L 18.433594 19.433594 L 21.667969 15.871094 L 33.625 15.546875 L 29.746094 0 L 46.226562 0 L 55.273438 15.546875 L 74.339844 15.546875 L 92.761719 34.976562 M 92.4375 37.890625 C 90.714844 37.890625 89.207031 38.539062 87.914062 39.835938 L 86.296875 44.046875 C 86.296875 45.988281 86.835938 47.5 87.914062 48.578125 C 89.207031 49.875 90.714844 50.523438 92.4375 50.523438 C 94.375 50.523438 95.882812 49.875 96.960938 48.578125 L 98.578125 44.046875 L 96.960938 39.835938 L 92.4375 37.890625 M 67.554688 44.046875 C 67.554688 45.988281 68.199219 47.5 69.492188 48.578125 C 70.785156 49.875 72.292969 50.523438 74.019531 50.523438 C 75.742188 50.523438 77.140625 49.875 78.21875 48.578125 L 80.15625 44.046875 L 78.21875 39.835938 C 77.140625 38.539062 75.742188 37.890625 74.019531 37.890625 C 72.292969 37.890625 70.785156 38.539062 69.492188 39.835938 C 68.199219 41.128906 67.554688 42.535156 67.554688 44.046875 M 77.574219 30.441406 L 71.109375 21.050781 L 39.117188 21.375 L 38.148438 22.347656 L 39.117188 25.585938 L 41.054688 28.5 L 42.996094 30.441406 L 77.574219 30.441406 "/>
</g>
</svg>
