<?xml version="1.0" encoding="UTF-8"?>
<svg xmlns="http://www.w3.org/2000/svg" xmlns:xlink="http://www.w3.org/1999/xlink" width="128pt" height="124pt" viewBox="0 0 128 124" version="1.1">
<g id="surface1">
<path style=" stroke:none;fill-rule:nonzero;fill-opacity:1;" d="M 122.601562 79.6875 C 118.152344 88.398438 113.917969 94.667969 109.894531 98.492188 C 105.027344 93.816406 100.367188 91.480469 95.921875 91.480469 C 88.933594 91.480469 83.535156 94.453125 79.722656 100.402344 L 78.769531 101.996094 L 73.050781 96.578125 L 79.085938 90.84375 C 81.839844 87.65625 85.652344 85 90.519531 82.875 C 94.96875 80.539062 98.777344 79.371094 101.957031 79.371094 L 98.144531 74.90625 L 94.96875 72.675781 L 128 67.578125 L 122.601562 79.6875 M 22.867188 115.382812 L 22.550781 116.019531 C 19.164062 121.332031 14.820312 123.988281 9.527344 123.988281 L 5.398438 123.988281 L 5.398438 114.425781 L 9.527344 114.425781 L 13.023438 111.558594 L 13.65625 109.964844 C 17.046875 104.867188 21.386719 102.316406 26.679688 102.316406 C 29.222656 102.316406 31.65625 103.164062 33.984375 104.867188 L 39.703125 109.964844 L 44.464844 114.425781 L 47.324219 111.558594 L 48.277344 109.964844 C 51.453125 104.867188 55.902344 102.316406 61.617188 102.316406 C 63.945312 102.316406 66.277344 103.164062 68.605469 104.867188 L 74.324219 109.964844 L 79.085938 114.425781 L 81.945312 111.558594 L 82.582031 109.964844 C 85.96875 104.867188 90.414062 102.316406 95.921875 102.316406 C 99.730469 102.316406 104.074219 104.867188 108.941406 109.964844 L 113.707031 114.425781 L 117.199219 114.425781 L 117.199219 123.988281 L 113.070312 123.988281 C 110.742188 123.988281 108.519531 123.136719 106.402344 121.4375 L 100.683594 116.339844 L 95.921875 111.878906 L 93.0625 113.46875 L 91.792969 115.382812 L 91.472656 116.019531 C 88.507812 121.332031 84.273438 123.988281 78.769531 123.988281 C 76.441406 123.988281 74.109375 123.136719 71.78125 121.4375 L 66.382812 116.339844 L 61.300781 111.878906 C 59.816406 111.878906 58.441406 113.046875 57.171875 115.382812 L 56.855469 116.019531 C 53.675781 121.332031 49.441406 123.988281 44.148438 123.988281 C 41.820312 123.988281 39.492188 123.136719 37.160156 121.4375 L 31.445312 116.339844 L 26.679688 111.878906 C 25.199219 111.878906 23.925781 113.046875 22.867188 115.382812 M 65.429688 45.90625 L 69.875 46.542969 C 71.359375 47.816406 71.464844 49.304688 70.195312 51.003906 L 72.417969 50.6875 L 74.324219 51.960938 C 75.804688 53.660156 75.804688 55.148438 74.324219 56.421875 L 74.324219 56.742188 C 76.226562 55.890625 77.710938 56.316406 78.769531 58.015625 C 80.039062 59.503906 79.933594 60.882812 78.453125 62.160156 L 78.769531 62.476562 L 80.992188 62.160156 L 82.898438 63.753906 C 84.167969 65.238281 84.0625 66.726562 82.582031 68.214844 L 82.582031 68.535156 L 87.34375 69.171875 C 88.617188 70.65625 88.722656 72.144531 87.664062 73.632812 L 87.664062 73.953125 L 91.472656 75.226562 L 94.96875 77.777344 C 89.675781 78.414062 84.699219 80.433594 80.039062 83.832031 L 68.289062 93.074219 L 61.300781 91.480469 C 54.734375 91.480469 49.335938 94.453125 45.101562 100.402344 L 44.148438 101.996094 L 42.242188 100.085938 L 35.574219 94.347656 C 32.609375 92.4375 29.644531 91.480469 26.679688 91.480469 C 22.234375 91.480469 18.210938 92.96875 14.609375 95.941406 C 7.835938 90.417969 3.8125 83.9375 2.539062 76.5 C 0.847656 65.664062 5.71875 56.105469 17.152344 47.816406 C 26.257812 41.65625 32.925781 36.558594 37.160156 32.519531 C 43.300781 27.207031 46.476562 22.746094 46.691406 19.132812 C 47.113281 17.007812 46.054688 14.777344 43.511719 12.441406 L 30.492188 11.804688 L 23.503906 16.902344 C 18.421875 23.914062 15.035156 27.207031 13.339844 26.785156 L 15.246094 21.683594 C 17.152344 18.710938 17.46875 16.796875 16.199219 15.949219 C 14.929688 15.097656 14.609375 13.503906 15.246094 11.167969 L 16.515625 7.660156 C 20.117188 4.050781 24.984375 1.925781 31.125 1.285156 C 38.113281 0.4375 43.9375 2.347656 48.59375 7.023438 C 52.617188 10.847656 54.417969 15.097656 53.996094 19.773438 C 53.570312 24.871094 50.289062 30.394531 44.148438 36.34375 L 21.597656 54.191406 C 16.09375 57.804688 12.492188 61.945312 10.800781 66.621094 C 9.316406 72.359375 11.328125 76.183594 16.832031 78.09375 C 22.550781 79.792969 25.9375 78.308594 26.996094 73.632812 C 29.113281 64.707031 35.890625 56.527344 47.324219 49.09375 C 57.488281 42.292969 63.3125 39.636719 64.792969 41.125 C 66.488281 42.398438 66.699219 43.992188 65.429688 45.90625 "/>
</g>
</svg>
