<?xml version="1.0" encoding="UTF-8"?>
<svg xmlns="http://www.w3.org/2000/svg" xmlns:xlink="http://www.w3.org/1999/xlink" width="127pt" height="115pt" viewBox="0 0 127 115" version="1.1">
<g id="surface1">
<path style=" stroke:none;fill-rule:nonzero;fill-opacity:1;" d="M 38.351562 63.042969 L 35.523438 69.691406 L 33.949219 76.34375 C 34.371094 78.875 37.933594 81.199219 44.636719 83.308594 L 44.324219 85.527344 L 45.265625 88.375 L 51.554688 90.277344 L 60.984375 91.542969 C 62.242188 91.332031 62.871094 89.433594 62.871094 85.84375 C 66.644531 86.054688 71.988281 84.683594 78.902344 81.726562 C 86.449219 78.769531 92.105469 75.394531 95.878906 71.59375 L 92.421875 64.625 C 109.816406 63.359375 120.398438 65.679688 124.171875 71.59375 C 126.058594 75.394531 124.277344 80.671875 118.828125 87.425781 L 103.421875 101.996094 C 95.25 108.960938 83.722656 112.761719 68.84375 113.394531 C 49.984375 114.449219 34.578125 111.074219 22.632812 103.261719 C 10.6875 95.449219 3.351562 83.835938 0.628906 68.425781 C 0.210938 62.304688 0.941406 58.820312 2.828125 57.976562 C 8.488281 55.652344 20.328125 57.339844 38.351562 63.042969 M 51.554688 74.125 L 57.839844 75.074219 C 58.679688 75.074219 58.890625 75.5 58.46875 76.34375 L 57.210938 84.894531 L 56.269531 85.84375 L 49.984375 84.894531 L 49.039062 83.625 L 50.296875 75.074219 L 51.554688 74.125 M 68.53125 3.1875 C 69.578125 2.132812 71.253906 1.078125 73.558594 0.0234375 L 76.386719 0.0234375 L 86.761719 15.539062 C 90.953125 22.296875 95.5625 26.414062 100.59375 27.890625 C 101.851562 27.046875 102.792969 25.144531 103.421875 22.191406 L 105.9375 15.539062 C 110.128906 29.261719 112.433594 39.605469 112.855469 46.574219 L 109.082031 38.65625 L 103.738281 31.691406 L 103.109375 36.441406 L 101.539062 40.242188 C 99.652344 39.605469 96.402344 37.917969 91.792969 35.171875 C 87.808594 32.640625 84.246094 30.953125 81.105469 30.105469 L 85.503906 45.308594 L 90.21875 60.824219 C 81.835938 67.371094 72.722656 71.699219 62.871094 73.808594 C 62.871094 71.066406 60.355469 69.480469 55.328125 69.058594 C 50.296875 68.636719 47.46875 69.480469 46.839844 71.59375 C 41.808594 67.792969 39.085938 64.519531 38.664062 61.773438 L 44.011719 45.308594 C 53.019531 22.929688 61.195312 8.890625 68.53125 3.1875 "/>
</g>
</svg>
